<?xml version="1.0" encoding="utf-8"?>
<!-- Generator: Adobe Illustrator 16.0.0, SVG Export Plug-In . SVG Version: 6.00 Build 0)  -->
<!DOCTYPE svg PUBLIC "-//W3C//DTD SVG 1.1//EN" "http://www.w3.org/Graphics/SVG/1.1/DTD/svg11.dtd">
<svg version="1.1" id="Layer_1" xmlns="http://www.w3.org/2000/svg" xmlns:xlink="http://www.w3.org/1999/xlink" x="0px" y="0px"
	 width="756.151px" height="363.89px" viewBox="0 0 756.151 363.89" enable-background="new 0 0 756.151 363.89"
	 xml:space="preserve">
<rect x="0.075" y="0.075" fill="none" stroke="#A6A8AB" stroke-width="0.15" stroke-miterlimit="10" width="756.001" height="363.74"/>
<g>
	<g>
		<g>
			<g>
				<rect x="258.642" y="167.187" fill="#20B5AE" width="147.47" height="148.979"/>
			</g>
			<rect x="273.759" y="203.941" fill="#FFFFFF" width="117.236" height="38.969"/>
			<g>
				<g>
					<g>
						<path fill="#585A5E" d="M318.407,215.16h4.852v1.113h-3.618v1.96h3.279v1.102h-3.279v2.129h3.618v1.126h-4.852V215.16z"/>
						<path fill="#585A5E" d="M324.554,222.589v-5.373h1.21v0.509c0.363-0.42,0.848-0.629,1.452-0.629
							c0.597,0,1.062,0.181,1.397,0.544s0.502,0.847,0.502,1.452v3.497h-1.21v-3.291c0-0.348-0.084-0.617-0.254-0.812
							c-0.169-0.193-0.424-0.29-0.762-0.29c-0.267,0-0.505,0.079-0.714,0.236c-0.21,0.157-0.348,0.364-0.412,0.623v3.533H324.554z"
							/>
						<path fill="#585A5E" d="M333.29,222.589h-1.246l-2.033-5.373h1.295l1.392,3.933l1.379-3.933h1.259L333.29,222.589z"/>
						<path fill="#585A5E" d="M340.326,217.882c0.472,0.524,0.708,1.198,0.708,2.021c0,0.823-0.236,1.496-0.708,2.021
							c-0.472,0.524-1.087,0.786-1.846,0.786c-0.758,0-1.373-0.262-1.845-0.786c-0.472-0.525-0.708-1.198-0.708-2.021
							c0-0.822,0.236-1.496,0.708-2.021s1.087-0.786,1.845-0.786C339.239,217.096,339.854,217.358,340.326,217.882z
							 M339.473,221.179c0.234-0.326,0.352-0.752,0.352-1.276s-0.117-0.95-0.352-1.276c-0.233-0.327-0.564-0.49-0.992-0.49
							c-0.427,0-0.758,0.163-0.992,0.49c-0.233,0.326-0.351,0.752-0.351,1.276s0.117,0.95,0.351,1.276
							c0.234,0.327,0.565,0.49,0.992,0.49C338.908,221.669,339.239,221.506,339.473,221.179z"/>
						<path fill="#585A5E" d="M344.118,224.646h-1.173l0.762-1.911l-2.081-5.519h1.295l1.403,3.957l1.38-3.957h1.246
							L344.118,224.646z"/>
					</g>
				</g>
				<g>
					<g>
						<path fill="#585A5E" d="M297.377,233.333c-0.585-0.799-0.877-1.751-0.877-2.856c0-1.104,0.292-2.057,0.877-2.855
							s1.373-1.327,2.365-1.585v1.307c-0.604,0.146-1.097,0.5-1.476,1.065c-0.38,0.564-0.569,1.254-0.569,2.068
							c0,0.815,0.189,1.505,0.569,2.069c0.379,0.565,0.871,0.92,1.476,1.065v1.307C298.75,234.659,297.962,234.13,297.377,233.333z"
							/>
						<path fill="#585A5E" d="M300.178,232.352h1.234c0.137,0.452,0.492,0.678,1.064,0.678c0.282,0,0.507-0.055,0.672-0.163
							c0.165-0.109,0.248-0.269,0.248-0.479c0-0.146-0.049-0.26-0.146-0.345s-0.258-0.155-0.483-0.212l-1.113-0.267
							c-0.888-0.209-1.331-0.701-1.331-1.476c0-0.484,0.191-0.886,0.574-1.204c0.384-0.318,0.869-0.478,1.458-0.478
							c0.613,0,1.102,0.139,1.465,0.417c0.362,0.278,0.593,0.668,0.689,1.168h-1.186c-0.121-0.396-0.448-0.593-0.98-0.593
							c-0.234,0-0.436,0.052-0.605,0.157c-0.169,0.104-0.254,0.258-0.254,0.459c0,0.234,0.186,0.399,0.557,0.496l1.138,0.267
							c0.92,0.218,1.379,0.726,1.379,1.524c0,0.524-0.195,0.942-0.587,1.253c-0.391,0.311-0.893,0.466-1.506,0.466
							c-0.629,0-1.147-0.149-1.555-0.448C300.503,233.276,300.259,232.869,300.178,232.352z"/>
						<path fill="#585A5E" d="M306.876,226.386c0.148,0.146,0.224,0.319,0.224,0.521c0,0.202-0.075,0.375-0.224,0.521
							c-0.149,0.146-0.325,0.218-0.526,0.218c-0.202,0-0.378-0.072-0.526-0.218c-0.149-0.146-0.224-0.318-0.224-0.521
							c0-0.201,0.074-0.375,0.224-0.521c0.148-0.145,0.324-0.218,0.526-0.218C306.551,226.168,306.727,226.242,306.876,226.386z
							 M306.955,228.528v5.373h-1.21v-5.373H306.955z"/>
						<path fill="#585A5E" d="M311.94,233.901v-0.46c-0.13,0.161-0.319,0.299-0.569,0.411c-0.25,0.113-0.516,0.17-0.798,0.17
							c-0.767,0-1.374-0.269-1.821-0.805c-0.448-0.536-0.672-1.204-0.672-2.003s0.224-1.466,0.672-2.003
							c0.447-0.536,1.055-0.804,1.821-0.804c0.282,0,0.548,0.056,0.798,0.169s0.439,0.25,0.569,0.411v-2.952h1.21v7.865H311.94z
							 M311.94,232.231v-2.033c-0.105-0.209-0.263-0.381-0.473-0.514c-0.209-0.134-0.439-0.2-0.689-0.2
							c-0.46,0-0.822,0.162-1.089,0.484s-0.399,0.738-0.399,1.246s0.133,0.924,0.399,1.246c0.267,0.323,0.629,0.484,1.089,0.484
							c0.25,0,0.48-0.066,0.689-0.199C311.677,232.613,311.834,232.441,311.94,232.231z"/>
						<path fill="#585A5E" d="M317.965,232.231h1.113c-0.097,0.549-0.341,0.984-0.732,1.307c-0.391,0.323-0.901,0.484-1.53,0.484
							c-0.75,0-1.361-0.258-1.833-0.774c-0.472-0.516-0.708-1.19-0.708-2.021c0-0.806,0.238-1.478,0.714-2.015
							c0.476-0.536,1.077-0.804,1.803-0.804c0.742,0,1.317,0.239,1.725,0.72c0.407,0.479,0.611,1.123,0.611,1.93v0.436h-3.667
							c0.017,0.468,0.147,0.837,0.394,1.107s0.566,0.405,0.962,0.405C317.454,233.005,317.836,232.748,317.965,232.231z
							 M316.804,229.423c-0.339,0-0.623,0.104-0.854,0.309c-0.229,0.206-0.381,0.498-0.453,0.878h2.432
							c-0.008-0.348-0.109-0.632-0.303-0.854S317.159,229.423,316.804,229.423z"/>
						<path fill="#585A5E" d="M320.603,233.242c-0.468-0.521-0.702-1.196-0.702-2.027s0.234-1.507,0.702-2.026
							c0.468-0.521,1.068-0.78,1.803-0.78c0.629,0,1.142,0.163,1.536,0.489c0.396,0.327,0.634,0.765,0.715,1.313h-1.211
							c-0.048-0.242-0.163-0.428-0.345-0.557c-0.181-0.129-0.409-0.194-0.684-0.194c-0.396,0-0.712,0.164-0.949,0.49
							c-0.238,0.327-0.357,0.749-0.357,1.265c0,0.517,0.119,0.938,0.357,1.265c0.237,0.327,0.554,0.49,0.949,0.49
							c0.274,0,0.503-0.064,0.684-0.194c0.182-0.129,0.297-0.314,0.345-0.557h1.211c-0.081,0.549-0.319,0.987-0.715,1.313
							c-0.395,0.327-0.907,0.49-1.536,0.49C321.671,234.022,321.071,233.762,320.603,233.242z"/>
						<path fill="#585A5E" d="M329.872,233.901h-1.149v-0.303c-0.097,0.097-0.272,0.188-0.526,0.272
							c-0.255,0.085-0.522,0.127-0.805,0.127c-0.573,0-1.051-0.159-1.435-0.478c-0.383-0.319-0.574-0.745-0.574-1.277
							c0-0.5,0.199-0.913,0.599-1.24c0.399-0.326,0.897-0.49,1.494-0.49c0.234,0,0.473,0.035,0.714,0.104
							c0.242,0.068,0.42,0.144,0.533,0.224v-0.436c0-0.282-0.089-0.515-0.267-0.696c-0.178-0.181-0.432-0.271-0.763-0.271
							c-0.476,0-0.782,0.193-0.919,0.58h-1.162c0.081-0.468,0.316-0.853,0.708-1.155s0.857-0.453,1.397-0.453
							c0.678,0,1.206,0.175,1.585,0.525c0.38,0.352,0.569,0.833,0.569,1.446V233.901z M328.722,232.473v-0.448
							c-0.065-0.161-0.202-0.292-0.412-0.393c-0.21-0.102-0.439-0.151-0.689-0.151c-0.299,0-0.559,0.064-0.78,0.193
							s-0.333,0.318-0.333,0.568s0.109,0.442,0.327,0.575s0.479,0.2,0.786,0.2c0.25,0,0.479-0.051,0.689-0.151
							C328.52,232.765,328.657,232.634,328.722,232.473z"/>
						<path fill="#585A5E" d="M334.299,228.504v1.246c-0.169-0.121-0.407-0.182-0.714-0.182c-0.258,0-0.488,0.074-0.689,0.224
							c-0.202,0.149-0.331,0.361-0.388,0.636v3.473h-1.21v-5.373h1.21v0.557c0.104-0.201,0.267-0.364,0.484-0.489
							s0.455-0.188,0.714-0.188C333.989,228.408,334.186,228.44,334.299,228.504z"/>
						<path fill="#585A5E" d="M339.296,233.441v2.517h-1.21v-7.43h1.21v0.46c0.129-0.161,0.318-0.298,0.569-0.411
							c0.25-0.113,0.516-0.169,0.798-0.169c0.759,0,1.363,0.271,1.815,0.816c0.451,0.544,0.678,1.208,0.678,1.99
							s-0.227,1.446-0.678,1.991c-0.452,0.544-1.057,0.816-1.815,0.816c-0.282,0-0.548-0.057-0.798-0.17
							C339.615,233.74,339.425,233.602,339.296,233.441z M339.296,230.198v2.033c0.104,0.21,0.263,0.382,0.472,0.515
							c0.21,0.133,0.44,0.199,0.69,0.199c0.46,0,0.822-0.161,1.089-0.484c0.266-0.322,0.399-0.738,0.399-1.246
							s-0.134-0.924-0.399-1.246c-0.267-0.322-0.629-0.484-1.089-0.484c-0.25,0-0.48,0.066-0.69,0.2
							C339.559,229.817,339.401,229.989,339.296,230.198z"/>
						<path fill="#585A5E" d="M347.283,228.504v1.246c-0.169-0.121-0.407-0.182-0.714-0.182c-0.258,0-0.488,0.074-0.689,0.224
							c-0.202,0.149-0.331,0.361-0.388,0.636v3.473h-1.21v-5.373h1.21v0.557c0.104-0.201,0.267-0.364,0.484-0.489
							s0.455-0.188,0.714-0.188C346.972,228.408,347.169,228.44,347.283,228.504z"/>
						<path fill="#585A5E" d="M352.419,229.194c0.472,0.524,0.708,1.198,0.708,2.021c0,0.823-0.236,1.496-0.708,2.021
							c-0.472,0.524-1.087,0.786-1.846,0.786c-0.758,0-1.373-0.262-1.845-0.786c-0.472-0.525-0.708-1.198-0.708-2.021
							c0-0.822,0.236-1.496,0.708-2.021s1.087-0.786,1.845-0.786C351.333,228.408,351.948,228.669,352.419,229.194z
							 M351.566,232.491c0.234-0.326,0.352-0.752,0.352-1.276s-0.117-0.95-0.352-1.276c-0.233-0.327-0.564-0.49-0.992-0.49
							c-0.427,0-0.758,0.163-0.992,0.49c-0.233,0.326-0.351,0.752-0.351,1.276s0.117,0.95,0.351,1.276
							c0.234,0.327,0.565,0.49,0.992,0.49C351.001,232.981,351.333,232.818,351.566,232.491z"/>
						<path fill="#585A5E" d="M358.838,228.528l-1.863,2.565l2.009,2.808h-1.367l-1.331-1.9l-1.344,1.9h-1.294l1.996-2.759
							l-1.852-2.614h1.367l1.174,1.694l1.21-1.694H358.838z"/>
						<path fill="#585A5E" d="M361.838,235.958h-1.173l0.762-1.911l-2.081-5.519h1.295l1.403,3.957l1.38-3.957h1.246
							L361.838,235.958z"/>
						<path fill="#585A5E" d="M367.375,227.621c0.585,0.799,0.877,1.751,0.877,2.855c0,1.105-0.292,2.058-0.877,2.856
							c-0.585,0.798-1.373,1.326-2.365,1.585v-1.307c0.604-0.146,1.097-0.5,1.476-1.065c0.38-0.564,0.569-1.254,0.569-2.069
							c0-0.814-0.189-1.504-0.569-2.068c-0.379-0.565-0.871-0.92-1.476-1.065v-1.307
							C366.001,226.293,366.79,226.822,367.375,227.621z"/>
					</g>
				</g>
			</g>
			<rect x="273.759" y="263.587" fill="#FFFFFF" width="117.236" height="38.969"/>
			<g>
				<g>
					<g>
						<path fill="#585A5E" d="M301.673,281.06v-1.112h6.195v1.112h-2.469v6.316h-1.259v-6.316H301.673z"/>
						<path fill="#585A5E" d="M310.112,279.863c0.148,0.145,0.224,0.318,0.224,0.521c0,0.201-0.075,0.375-0.224,0.52
							c-0.149,0.146-0.325,0.218-0.526,0.218c-0.202,0-0.378-0.072-0.526-0.218c-0.149-0.145-0.224-0.318-0.224-0.52
							c0-0.202,0.074-0.376,0.224-0.521c0.148-0.146,0.324-0.218,0.526-0.218C309.787,279.645,309.963,279.717,310.112,279.863z
							 M310.19,282.004v5.372h-1.21v-5.372H310.19z"/>
						<path fill="#585A5E" d="M315.66,282.597c0.412-0.476,0.944-0.714,1.598-0.714c0.548,0,0.976,0.18,1.282,0.538
							c0.307,0.359,0.46,0.846,0.46,1.458v3.497h-1.21v-3.303c0-0.339-0.075-0.607-0.224-0.805c-0.149-0.198-0.369-0.297-0.66-0.297
							c-0.226,0-0.429,0.068-0.61,0.206c-0.182,0.137-0.297,0.335-0.345,0.593v3.605h-1.21v-3.303c0-0.339-0.075-0.607-0.225-0.805
							c-0.149-0.198-0.369-0.297-0.659-0.297c-0.226,0-0.43,0.068-0.611,0.206c-0.181,0.137-0.296,0.335-0.345,0.593v3.605h-1.21
							v-5.372h1.21v0.447c0.282-0.379,0.73-0.568,1.344-0.568c0.298,0,0.572,0.066,0.822,0.199
							C315.317,282.216,315.516,282.387,315.66,282.597z"/>
						<path fill="#585A5E" d="M323.742,285.707h1.113c-0.097,0.549-0.341,0.984-0.732,1.307c-0.391,0.323-0.901,0.484-1.53,0.484
							c-0.75,0-1.361-0.258-1.833-0.774c-0.472-0.516-0.708-1.189-0.708-2.021c0-0.807,0.238-1.479,0.714-2.015
							s1.077-0.805,1.803-0.805c0.742,0,1.317,0.24,1.725,0.72c0.407,0.48,0.611,1.124,0.611,1.931v0.436h-3.667
							c0.017,0.468,0.147,0.837,0.394,1.106c0.246,0.271,0.566,0.405,0.962,0.405C323.23,286.481,323.613,286.223,323.742,285.707z
							 M322.581,282.9c-0.339,0-0.623,0.103-0.854,0.309c-0.229,0.205-0.381,0.498-0.453,0.877h2.432
							c-0.008-0.347-0.109-0.631-0.303-0.853C323.21,283.01,322.936,282.9,322.581,282.9z"/>
						<path fill="#585A5E" d="M328.184,285.32h1.282c0.234,0.742,0.795,1.113,1.682,1.113c0.437,0,0.785-0.099,1.047-0.297
							c0.263-0.197,0.394-0.466,0.394-0.805c0-0.266-0.083-0.478-0.248-0.635s-0.441-0.28-0.829-0.369l-1.258-0.303
							c-1.234-0.29-1.852-0.956-1.852-1.996c0-0.638,0.235-1.164,0.708-1.579c0.472-0.416,1.078-0.623,1.82-0.623
							c0.783,0,1.414,0.184,1.895,0.55c0.479,0.367,0.788,0.87,0.925,1.507h-1.258c-0.234-0.661-0.75-0.992-1.549-0.992
							c-0.403,0-0.729,0.095-0.975,0.284s-0.369,0.438-0.369,0.744c0,0.492,0.327,0.815,0.98,0.968l1.295,0.303
							c0.604,0.138,1.077,0.38,1.416,0.727c0.338,0.347,0.508,0.79,0.508,1.331c0,0.686-0.246,1.231-0.738,1.639
							s-1.129,0.611-1.912,0.611c-0.79,0-1.449-0.191-1.978-0.575C328.642,286.54,328.312,286.005,328.184,285.32z"/>
						<path fill="#585A5E" d="M338.286,285.707h1.113c-0.097,0.549-0.341,0.984-0.732,1.307c-0.391,0.323-0.901,0.484-1.53,0.484
							c-0.75,0-1.361-0.258-1.833-0.774c-0.472-0.516-0.708-1.189-0.708-2.021c0-0.807,0.238-1.479,0.714-2.015
							s1.077-0.805,1.803-0.805c0.742,0,1.317,0.24,1.725,0.72c0.407,0.48,0.611,1.124,0.611,1.931v0.436h-3.667
							c0.017,0.468,0.147,0.837,0.394,1.106c0.246,0.271,0.566,0.405,0.962,0.405C337.774,286.481,338.157,286.223,338.286,285.707z
							 M337.125,282.9c-0.339,0-0.623,0.103-0.854,0.309c-0.229,0.205-0.381,0.498-0.453,0.877h2.432
							c-0.008-0.347-0.109-0.631-0.303-0.853C337.754,283.01,337.479,282.9,337.125,282.9z"/>
						<path fill="#585A5E" d="M343.562,281.98v1.246c-0.169-0.121-0.407-0.182-0.714-0.182c-0.258,0-0.488,0.075-0.689,0.225
							c-0.202,0.149-0.331,0.36-0.388,0.635v3.473h-1.21v-5.372h1.21v0.557c0.104-0.202,0.267-0.365,0.484-0.49
							s0.455-0.188,0.714-0.188C343.252,281.883,343.449,281.916,343.562,281.98z"/>
						<path fill="#585A5E" d="M347.422,287.376h-1.246l-2.033-5.372h1.295l1.392,3.933l1.379-3.933h1.259L347.422,287.376z"/>
						<path fill="#585A5E" d="M351.566,279.863c0.148,0.145,0.224,0.318,0.224,0.521c0,0.201-0.075,0.375-0.224,0.52
							c-0.149,0.146-0.325,0.218-0.526,0.218c-0.202,0-0.378-0.072-0.526-0.218c-0.149-0.145-0.224-0.318-0.224-0.52
							c0-0.202,0.074-0.376,0.224-0.521c0.148-0.146,0.324-0.218,0.526-0.218C351.241,279.645,351.417,279.717,351.566,279.863z
							 M351.645,282.004v5.372h-1.21v-5.372H351.645z"/>
						<path fill="#585A5E" d="M353.472,286.717c-0.468-0.521-0.702-1.196-0.702-2.026c0-0.831,0.234-1.507,0.702-2.027
							s1.068-0.78,1.803-0.78c0.629,0,1.142,0.163,1.536,0.49c0.396,0.326,0.634,0.765,0.715,1.312h-1.211
							c-0.048-0.242-0.163-0.428-0.345-0.557c-0.181-0.129-0.409-0.193-0.684-0.193c-0.396,0-0.712,0.163-0.949,0.49
							c-0.238,0.326-0.357,0.748-0.357,1.265c0,0.516,0.119,0.938,0.357,1.264c0.237,0.327,0.554,0.49,0.949,0.49
							c0.274,0,0.503-0.064,0.684-0.194c0.182-0.129,0.297-0.313,0.345-0.556h1.211c-0.081,0.548-0.319,0.986-0.715,1.312
							c-0.395,0.327-0.907,0.49-1.536,0.49C354.54,287.498,353.939,287.238,353.472,286.717z"/>
						<path fill="#585A5E" d="M361.917,285.707h1.113c-0.097,0.549-0.341,0.984-0.732,1.307c-0.391,0.323-0.901,0.484-1.53,0.484
							c-0.75,0-1.361-0.258-1.833-0.774c-0.472-0.516-0.708-1.189-0.708-2.021c0-0.807,0.238-1.479,0.714-2.015
							s1.077-0.805,1.803-0.805c0.742,0,1.317,0.24,1.725,0.72c0.407,0.48,0.611,1.124,0.611,1.931v0.436h-3.667
							c0.017,0.468,0.147,0.837,0.394,1.106c0.246,0.271,0.566,0.405,0.962,0.405C361.405,286.481,361.788,286.223,361.917,285.707z
							 M360.756,282.9c-0.339,0-0.623,0.103-0.854,0.309c-0.229,0.205-0.381,0.498-0.453,0.877h2.432
							c-0.008-0.347-0.109-0.631-0.303-0.853C361.385,283.01,361.11,282.9,360.756,282.9z"/>
					</g>
				</g>
			</g>
			<g>
				<g>
					<path fill="#FFFFFF" d="M278.862,180.868c0.552,0,0.996,0.068,1.332,0.204c0.336,0.136,0.598,0.31,0.786,0.522
						s0.314,0.444,0.378,0.696s0.096,0.491,0.096,0.713c0,0.488-0.128,0.869-0.384,1.141c-0.256,0.271-0.588,0.477-0.996,0.611
						v0.013c0.16,0.032,0.344,0.09,0.552,0.174s0.404,0.208,0.588,0.372s0.338,0.377,0.462,0.637s0.186,0.582,0.186,0.965
						c0,0.504-0.098,0.91-0.294,1.219c-0.196,0.308-0.448,0.546-0.756,0.714s-0.652,0.28-1.032,0.336s-0.758,0.084-1.134,0.084
						h-3.996v-8.4H278.862z M276.63,184.18h1.824c0.2,0,0.364-0.03,0.492-0.091c0.128-0.059,0.228-0.133,0.3-0.221
						c0.072-0.088,0.122-0.183,0.15-0.283c0.028-0.1,0.042-0.189,0.042-0.27c0-0.088-0.014-0.18-0.042-0.275
						c-0.028-0.097-0.082-0.185-0.162-0.265c-0.08-0.079-0.19-0.146-0.33-0.198c-0.14-0.052-0.318-0.078-0.534-0.078h-1.74V184.18z
						 M276.63,187.636h2.052c0.088,0,0.194-0.014,0.318-0.042s0.244-0.076,0.36-0.144c0.116-0.068,0.214-0.164,0.294-0.289
						c0.08-0.123,0.12-0.281,0.12-0.474c0-0.2-0.036-0.362-0.108-0.485c-0.072-0.125-0.17-0.223-0.294-0.295
						s-0.268-0.119-0.432-0.144s-0.334-0.036-0.51-0.036h-1.8V187.636z"/>
					<path fill="#FFFFFF" d="M283.326,185.14c0.016-0.352,0.082-0.652,0.198-0.9c0.116-0.248,0.262-0.451,0.438-0.611
						c0.176-0.16,0.37-0.286,0.582-0.379c0.212-0.092,0.422-0.159,0.63-0.203c0.208-0.045,0.402-0.072,0.582-0.084
						c0.18-0.012,0.326-0.019,0.438-0.019c0.456,0,0.842,0.04,1.158,0.12s0.578,0.184,0.786,0.312
						c0.208,0.127,0.37,0.273,0.486,0.438c0.116,0.164,0.202,0.332,0.258,0.504c0.056,0.172,0.088,0.336,0.096,0.492
						s0.012,0.294,0.012,0.414l-0.036,2.784c-0.008,0.336,0.006,0.603,0.042,0.798s0.142,0.314,0.318,0.354v0.108h-1.92
						l-0.156-0.601h-0.036c-0.24,0.305-0.546,0.519-0.918,0.643s-0.746,0.186-1.122,0.186c-0.488,0-0.872-0.067-1.152-0.203
						c-0.28-0.137-0.492-0.299-0.636-0.486s-0.236-0.382-0.276-0.582c-0.04-0.199-0.06-0.363-0.06-0.492
						c0-0.344,0.066-0.63,0.198-0.857c0.132-0.229,0.306-0.412,0.522-0.553c0.216-0.14,0.458-0.246,0.726-0.318
						c0.268-0.071,0.542-0.131,0.822-0.18c0.336-0.048,0.62-0.084,0.852-0.107c0.232-0.024,0.422-0.055,0.57-0.09
						c0.148-0.037,0.256-0.088,0.324-0.156c0.068-0.068,0.106-0.178,0.114-0.33v-0.168c-0.008-0.2-0.054-0.354-0.138-0.462
						s-0.18-0.188-0.288-0.24s-0.216-0.082-0.324-0.09s-0.186-0.013-0.234-0.013c-0.08,0-0.184,0.009-0.312,0.024
						c-0.128,0.017-0.252,0.058-0.372,0.126s-0.222,0.166-0.306,0.295c-0.084,0.127-0.126,0.303-0.126,0.527H283.326z
						 M287.166,186.365c-0.134,0.063-0.238,0.109-0.313,0.137c-0.075,0.029-0.147,0.053-0.218,0.072
						c-0.071,0.021-0.154,0.036-0.248,0.049c-0.095,0.012-0.229,0.033-0.401,0.065c-0.095,0.017-0.203,0.038-0.325,0.065
						c-0.122,0.029-0.236,0.074-0.342,0.139c-0.106,0.064-0.197,0.15-0.271,0.258c-0.075,0.108-0.112,0.246-0.112,0.414
						c0,0.145,0.032,0.262,0.095,0.354c0.063,0.093,0.142,0.164,0.236,0.217c0.095,0.052,0.195,0.088,0.301,0.107
						c0.106,0.021,0.203,0.03,0.29,0.03c0.11,0,0.24-0.022,0.39-0.065c0.149-0.045,0.293-0.123,0.431-0.234s0.254-0.268,0.349-0.469
						c0.094-0.199,0.142-0.451,0.142-0.756V186.365z"/>
					<path fill="#FFFFFF" d="M292.314,180.868v8.4h-1.824v-8.4H292.314z"/>
					<path fill="#FFFFFF" d="M295.65,180.868v8.4h-1.824v-8.4H295.65z"/>
					<path fill="#FFFFFF" d="M303.318,187.503c-0.12,0.433-0.3,0.779-0.54,1.039c-0.24,0.26-0.508,0.461-0.804,0.605
						s-0.604,0.238-0.924,0.282c-0.32,0.044-0.62,0.065-0.9,0.065c-0.136,0-0.311-0.01-0.522-0.029
						c-0.212-0.021-0.44-0.064-0.684-0.133c-0.244-0.067-0.488-0.172-0.732-0.312c-0.244-0.14-0.466-0.331-0.666-0.575
						c-0.2-0.244-0.362-0.549-0.486-0.912c-0.124-0.365-0.186-0.807-0.186-1.326c0-0.528,0.084-0.994,0.252-1.398
						s0.404-0.744,0.708-1.02c0.304-0.276,0.666-0.486,1.086-0.631c0.42-0.144,0.877-0.216,1.374-0.216s0.916,0.066,1.26,0.198
						c0.344,0.132,0.632,0.303,0.864,0.51c0.232,0.209,0.416,0.442,0.552,0.702c0.136,0.261,0.238,0.517,0.306,0.769
						c0.068,0.252,0.11,0.485,0.126,0.701c0.016,0.217,0.028,0.385,0.036,0.504l0.012,0.336h-4.68c0,0.145,0.022,0.311,0.067,0.498
						c0.044,0.188,0.121,0.365,0.23,0.528c0.109,0.164,0.258,0.302,0.448,0.414s0.434,0.168,0.732,0.168
						c0.266,0,0.521-0.06,0.763-0.18s0.404-0.315,0.484-0.589H303.318z M301.554,185.644c-0.008-0.328-0.058-0.59-0.15-0.786
						c-0.092-0.196-0.204-0.344-0.336-0.444c-0.132-0.1-0.27-0.166-0.414-0.197c-0.144-0.032-0.272-0.049-0.384-0.049
						c-0.272,0-0.5,0.049-0.684,0.145s-0.336,0.216-0.456,0.359c-0.12,0.145-0.208,0.305-0.264,0.48
						c-0.056,0.176-0.088,0.34-0.096,0.492H301.554z"/>
					<path fill="#FFFFFF" d="M308.838,184.18c-0.08-0.008-0.16-0.013-0.24-0.013c-0.08,0-0.16,0-0.24,0
						c-0.264,0-0.51,0.037-0.738,0.108s-0.426,0.204-0.594,0.396s-0.302,0.457-0.402,0.796s-0.15,0.776-0.15,1.311v2.49h-1.824
						v-6.097h1.824v1.009c0.12-0.251,0.26-0.456,0.42-0.618c0.16-0.162,0.336-0.287,0.528-0.375c0.192-0.09,0.39-0.152,0.594-0.188
						c0.204-0.036,0.406-0.055,0.606-0.055h0.216V184.18z"/>
					<path fill="#FFFFFF" d="M309.738,180.868h1.824v1.428h-1.824V180.868z M311.562,183.171v6.097h-1.824v-6.097H311.562z"/>
					<path fill="#FFFFFF" d="M314.826,183.904c0.248-0.336,0.56-0.58,0.936-0.732c0.376-0.151,0.768-0.228,1.176-0.228
						c0.208,0,0.43,0.024,0.666,0.072c0.236,0.048,0.456,0.155,0.66,0.323c0.204,0.169,0.374,0.419,0.51,0.75
						c0.136,0.333,0.204,0.783,0.204,1.351v3.828h-1.824v-3.528c0-0.151-0.008-0.318-0.024-0.498c-0.016-0.18-0.058-0.35-0.126-0.51
						c-0.068-0.16-0.172-0.294-0.312-0.402c-0.14-0.107-0.33-0.162-0.57-0.162c-0.304,0-0.538,0.074-0.702,0.223
						c-0.164,0.148-0.284,0.318-0.36,0.51c-0.076,0.192-0.122,0.381-0.138,0.564c-0.016,0.184-0.024,0.308-0.024,0.371v3.433h-1.824
						v-6.097h1.752V183.904z"/>
					<path fill="#FFFFFF" d="M320.574,185.14c0.016-0.352,0.082-0.652,0.198-0.9c0.116-0.248,0.262-0.451,0.438-0.611
						c0.176-0.16,0.37-0.286,0.582-0.379c0.212-0.092,0.422-0.159,0.63-0.203c0.208-0.045,0.402-0.072,0.582-0.084
						c0.18-0.012,0.326-0.019,0.438-0.019c0.456,0,0.842,0.04,1.158,0.12s0.578,0.184,0.786,0.312
						c0.208,0.127,0.37,0.273,0.486,0.438c0.116,0.164,0.202,0.332,0.258,0.504c0.056,0.172,0.088,0.336,0.096,0.492
						s0.012,0.294,0.012,0.414l-0.036,2.784c-0.008,0.336,0.006,0.603,0.042,0.798s0.142,0.314,0.318,0.354v0.108h-1.92
						l-0.156-0.601h-0.036c-0.24,0.305-0.546,0.519-0.918,0.643s-0.746,0.186-1.122,0.186c-0.488,0-0.872-0.067-1.152-0.203
						c-0.28-0.137-0.492-0.299-0.636-0.486s-0.236-0.382-0.276-0.582c-0.04-0.199-0.06-0.363-0.06-0.492
						c0-0.344,0.066-0.63,0.198-0.857c0.132-0.229,0.306-0.412,0.522-0.553c0.216-0.14,0.458-0.246,0.726-0.318
						c0.268-0.071,0.542-0.131,0.822-0.18c0.336-0.048,0.62-0.084,0.852-0.107c0.232-0.024,0.422-0.055,0.57-0.09
						c0.148-0.037,0.256-0.088,0.324-0.156c0.068-0.068,0.106-0.178,0.114-0.33v-0.168c-0.008-0.2-0.054-0.354-0.138-0.462
						s-0.18-0.188-0.288-0.24s-0.216-0.082-0.324-0.09s-0.186-0.013-0.234-0.013c-0.08,0-0.184,0.009-0.312,0.024
						c-0.128,0.017-0.252,0.058-0.372,0.126s-0.222,0.166-0.306,0.295c-0.084,0.127-0.126,0.303-0.126,0.527H320.574z
						 M324.414,186.365c-0.134,0.063-0.238,0.109-0.313,0.137c-0.075,0.029-0.147,0.053-0.218,0.072
						c-0.071,0.021-0.154,0.036-0.248,0.049c-0.095,0.012-0.229,0.033-0.401,0.065c-0.095,0.017-0.203,0.038-0.325,0.065
						c-0.122,0.029-0.236,0.074-0.342,0.139c-0.106,0.064-0.197,0.15-0.271,0.258c-0.075,0.108-0.112,0.246-0.112,0.414
						c0,0.145,0.032,0.262,0.095,0.354c0.063,0.093,0.142,0.164,0.236,0.217c0.095,0.052,0.195,0.088,0.301,0.107
						c0.106,0.021,0.203,0.03,0.29,0.03c0.11,0,0.24-0.022,0.39-0.065c0.149-0.045,0.293-0.123,0.431-0.234s0.254-0.268,0.349-0.469
						c0.094-0.199,0.142-0.451,0.142-0.756V186.365z"/>
				</g>
			</g>
		</g>
		
			<line fill="none" stroke="#585A5E" stroke-width="1.1" stroke-miterlimit="10" x1="332.376" y1="242.662" x2="332.376" y2="263.662"/>
		<g>
			<g>
				
					<line fill="none" stroke="#585A5E" stroke-width="1.1" stroke-miterlimit="10" x1="332.376" y1="138.661" x2="332.376" y2="139.661"/>
				
					<line fill="none" stroke="#585A5E" stroke-width="1.1" stroke-miterlimit="10" stroke-dasharray="2.0323,2.0323" x1="332.376" y1="141.693" x2="332.376" y2="201.646"/>
				
					<line fill="none" stroke="#585A5E" stroke-width="1.1" stroke-miterlimit="10" x1="332.376" y1="202.662" x2="332.376" y2="203.662"/>
			</g>
		</g>
	</g>
	<g>
		
			<rect x="494.818" y="171.181" fill="none" stroke="#585A5E" stroke-width="1.2281" stroke-miterlimit="10" width="165.194" height="46.5"/>
		<g>
			<g>
				<path fill="#585A5E" d="M558.836,186.645h-0.024l0.024,0.327v6.788h-1.138v-8.471h1.706l2.65,6.97l2.649-6.97h1.706v8.471
					h-1.137v-6.788l0.023-0.327h-0.036l-2.746,7.115h-0.92L558.836,186.645z"/>
				<path fill="#585A5E" d="M573.755,191.981c-0.041,0.218-0.115,0.446-0.224,0.684c-0.109,0.238-0.267,0.456-0.473,0.654
					c-0.205,0.197-0.47,0.36-0.792,0.489c-0.323,0.129-0.723,0.194-1.198,0.194c-0.508,0-0.938-0.069-1.288-0.206
					c-0.352-0.137-0.642-0.312-0.872-0.526c-0.229-0.214-0.409-0.449-0.538-0.708c-0.129-0.258-0.224-0.508-0.284-0.75
					s-0.097-0.462-0.109-0.659c-0.012-0.198-0.018-0.346-0.018-0.442c0-0.137,0.008-0.316,0.024-0.538
					c0.016-0.222,0.056-0.456,0.12-0.702s0.162-0.494,0.291-0.744s0.305-0.476,0.526-0.678c0.222-0.201,0.498-0.364,0.829-0.489
					c0.33-0.125,0.733-0.188,1.21-0.188c0.612,0,1.103,0.106,1.47,0.32s0.649,0.482,0.847,0.805
					c0.198,0.322,0.331,0.676,0.399,1.059c0.068,0.384,0.111,0.74,0.127,1.071c0,0.048,0.002,0.099,0.007,0.151
					c0.004,0.052,0.006,0.103,0.006,0.15h-4.731c0,0.267,0.036,0.537,0.109,0.812c0.072,0.273,0.186,0.521,0.339,0.744
					c0.152,0.222,0.353,0.405,0.599,0.55c0.246,0.146,0.546,0.218,0.901,0.218c0.25,0,0.476-0.034,0.678-0.103
					c0.201-0.068,0.373-0.161,0.514-0.278c0.142-0.117,0.255-0.252,0.339-0.405c0.085-0.153,0.144-0.314,0.176-0.484H573.755z
					 M572.689,190.178c-0.008-0.201-0.036-0.423-0.084-0.665c-0.049-0.242-0.136-0.466-0.261-0.672s-0.296-0.377-0.514-0.515
					c-0.218-0.137-0.501-0.205-0.848-0.205c-0.387,0-0.706,0.07-0.955,0.212c-0.251,0.141-0.446,0.316-0.587,0.526
					c-0.142,0.21-0.236,0.434-0.285,0.671c-0.048,0.238-0.072,0.454-0.072,0.647H572.689z"/>
				<path fill="#585A5E" d="M575.595,187.613v-1.839h1.064v1.839h1.307v0.751h-1.307v3.908c0,0.113,0.002,0.22,0.006,0.32
					s0.024,0.191,0.061,0.272s0.099,0.144,0.188,0.188s0.218,0.066,0.388,0.066c0.112,0,0.226-0.01,0.339-0.03
					c0.112-0.02,0.222-0.046,0.326-0.078v0.75c-0.169,0.072-0.351,0.131-0.544,0.175c-0.194,0.045-0.384,0.067-0.569,0.067
					c-0.314,0-0.559-0.049-0.731-0.146c-0.174-0.097-0.299-0.22-0.376-0.369c-0.076-0.149-0.12-0.312-0.133-0.49
					c-0.012-0.177-0.018-0.347-0.018-0.508v-4.126h-1.102v-0.751H575.595z"/>
				<path fill="#585A5E" d="M582.516,188.122c-0.363,0.016-0.684,0.064-0.962,0.146c-0.278,0.08-0.517,0.205-0.714,0.375
					c-0.198,0.169-0.355,0.387-0.472,0.653c-0.117,0.266-0.188,0.593-0.212,0.979c-0.008,0.113-0.013,0.223-0.013,0.327
					s0,0.214,0,0.326v2.832h-1.064v-6.147h1.064v1.187h0.024c0.073-0.226,0.18-0.426,0.321-0.6c0.141-0.173,0.302-0.318,0.483-0.436
					c0.182-0.116,0.377-0.207,0.587-0.271s0.424-0.102,0.642-0.109l0.314-0.012V188.122z"/>
				<path fill="#585A5E" d="M583.52,185.29h1.065v1.113h-1.065V185.29z M584.585,187.613v6.147h-1.065v-6.147H584.585z"/>
				<path fill="#585A5E" d="M591.627,191.57c-0.017,0.186-0.062,0.416-0.14,0.689c-0.076,0.274-0.21,0.541-0.398,0.799
					c-0.19,0.259-0.456,0.48-0.799,0.666s-0.789,0.278-1.337,0.278c-0.105,0-0.251-0.009-0.436-0.024
					c-0.187-0.017-0.392-0.057-0.617-0.121c-0.227-0.064-0.454-0.167-0.684-0.309c-0.23-0.142-0.438-0.335-0.624-0.581
					s-0.338-0.559-0.459-0.938s-0.182-0.843-0.182-1.392c0-0.354,0.04-0.726,0.121-1.113c0.08-0.387,0.229-0.74,0.447-1.059
					s0.517-0.581,0.896-0.786c0.379-0.206,0.867-0.309,1.464-0.309c0.436,0,0.814,0.059,1.138,0.175
					c0.322,0.117,0.593,0.276,0.811,0.479c0.218,0.201,0.39,0.432,0.515,0.689s0.203,0.532,0.235,0.823h-1.016
					c-0.057-0.339-0.158-0.605-0.303-0.799c-0.146-0.194-0.303-0.335-0.472-0.424c-0.17-0.089-0.337-0.143-0.503-0.163
					c-0.165-0.021-0.292-0.03-0.381-0.03c-0.331,0-0.613,0.066-0.847,0.199c-0.234,0.134-0.424,0.312-0.569,0.539
					c-0.145,0.226-0.25,0.492-0.314,0.798c-0.064,0.307-0.097,0.634-0.097,0.98s0.036,0.678,0.109,0.992
					c0.072,0.314,0.183,0.593,0.332,0.835s0.345,0.434,0.587,0.575c0.242,0.141,0.532,0.211,0.871,0.211
					c0.299,0,0.551-0.056,0.757-0.169c0.205-0.113,0.373-0.252,0.502-0.418c0.129-0.165,0.222-0.347,0.278-0.544
					s0.089-0.381,0.097-0.551H591.627z"/>
				<path fill="#585A5E" d="M593.562,191.933c0.009,0.242,0.061,0.447,0.156,0.617c0.096,0.169,0.222,0.307,0.378,0.411
					s0.332,0.18,0.528,0.224c0.196,0.045,0.395,0.066,0.595,0.066c0.352,0,0.624-0.048,0.816-0.145s0.332-0.21,0.42-0.339
					s0.138-0.259,0.15-0.388c0.012-0.129,0.018-0.226,0.018-0.29c0-0.097-0.01-0.191-0.03-0.284
					c-0.02-0.093-0.074-0.182-0.162-0.267s-0.219-0.165-0.391-0.242c-0.173-0.076-0.407-0.151-0.703-0.224l-0.649-0.146
					c-0.257-0.056-0.501-0.121-0.733-0.193c-0.233-0.072-0.438-0.173-0.613-0.303c-0.177-0.129-0.317-0.296-0.421-0.502
					c-0.104-0.205-0.156-0.47-0.156-0.792c0-0.339,0.068-0.623,0.205-0.854c0.138-0.229,0.318-0.411,0.545-0.544
					c0.226-0.134,0.476-0.229,0.75-0.285c0.274-0.056,0.553-0.084,0.835-0.084c0.524,0,0.945,0.064,1.265,0.193
					c0.318,0.129,0.566,0.288,0.744,0.478c0.177,0.189,0.298,0.392,0.363,0.605c0.064,0.214,0.104,0.405,0.12,0.574h-1.016
					c-0.009-0.088-0.031-0.195-0.067-0.32s-0.105-0.246-0.207-0.363c-0.101-0.116-0.244-0.216-0.431-0.296
					c-0.187-0.081-0.434-0.121-0.741-0.121c-0.033,0-0.118,0.004-0.256,0.012c-0.138,0.009-0.281,0.043-0.432,0.104
					c-0.149,0.06-0.285,0.157-0.407,0.29c-0.121,0.133-0.182,0.32-0.182,0.562c0,0.218,0.046,0.392,0.14,0.521
					c0.093,0.129,0.218,0.229,0.376,0.303c0.157,0.072,0.34,0.131,0.546,0.175c0.207,0.045,0.419,0.091,0.638,0.14
					c0.315,0.072,0.606,0.147,0.874,0.224c0.267,0.077,0.499,0.178,0.697,0.303s0.353,0.288,0.462,0.49
					c0.109,0.201,0.163,0.459,0.163,0.774c0,0.322-0.056,0.595-0.169,0.816s-0.254,0.407-0.424,0.557
					c-0.169,0.149-0.356,0.264-0.562,0.345c-0.205,0.08-0.403,0.141-0.593,0.182c-0.189,0.04-0.355,0.064-0.496,0.072
					c-0.142,0.008-0.236,0.013-0.284,0.013c-0.46,0-0.857-0.055-1.192-0.164c-0.334-0.108-0.615-0.258-0.841-0.447
					s-0.396-0.409-0.508-0.659c-0.113-0.25-0.174-0.517-0.182-0.799H593.562z"/>
			</g>
		</g>
		<g>
			<g>
				<path fill="#585A5E" d="M511.295,197.29c-0.553,1.065-0.939,2.045-1.159,2.94s-0.329,1.698-0.329,2.408
					c0,0.452,0.039,0.909,0.116,1.373s0.183,0.926,0.316,1.386c0.135,0.46,0.291,0.907,0.47,1.343s0.374,0.852,0.586,1.247h-0.799
					c-0.371-0.63-0.671-1.188-0.901-1.676c-0.229-0.488-0.407-0.94-0.532-1.355c-0.125-0.416-0.21-0.809-0.254-1.18
					c-0.045-0.371-0.066-0.75-0.066-1.138c0-0.387,0.021-0.767,0.066-1.138c0.044-0.371,0.129-0.764,0.254-1.18
					c0.125-0.415,0.303-0.867,0.532-1.354c0.23-0.488,0.53-1.047,0.901-1.677H511.295z"/>
				<path fill="#585A5E" d="M516.763,197.29c0.434,0,0.825,0.045,1.175,0.134s0.649,0.229,0.898,0.423
					c0.249,0.194,0.441,0.446,0.578,0.757s0.205,0.684,0.205,1.119c0,0.396-0.052,0.756-0.156,1.083
					c-0.104,0.326-0.273,0.607-0.506,0.841c-0.233,0.234-0.538,0.416-0.915,0.545c-0.378,0.129-0.84,0.193-1.386,0.193h-2.191v3.376
					h-1.138v-8.471H516.763z M514.465,201.428h2.081c0.678,0,1.17-0.141,1.477-0.424c0.306-0.282,0.459-0.701,0.459-1.258
					c0-0.524-0.159-0.905-0.478-1.144s-0.805-0.357-1.458-0.357h-2.081V201.428z"/>
				<path fill="#585A5E" d="M523.939,200.122c-0.363,0.016-0.684,0.064-0.962,0.146c-0.278,0.08-0.517,0.205-0.714,0.375
					c-0.198,0.169-0.355,0.387-0.472,0.653c-0.117,0.266-0.188,0.593-0.212,0.979c-0.008,0.113-0.013,0.223-0.013,0.327
					s0,0.214,0,0.326v2.832h-1.064v-6.147h1.064v1.187h0.024c0.073-0.226,0.18-0.426,0.321-0.6c0.141-0.173,0.302-0.318,0.483-0.436
					c0.182-0.116,0.377-0.207,0.587-0.271s0.424-0.102,0.642-0.109l0.314-0.012V200.122z"/>
				<path fill="#585A5E" d="M524.314,202.687c0-0.412,0.052-0.815,0.157-1.21c0.104-0.396,0.276-0.749,0.514-1.06
					c0.238-0.311,0.551-0.562,0.938-0.756c0.387-0.193,0.858-0.29,1.415-0.29s1.029,0.097,1.416,0.29
					c0.388,0.193,0.7,0.445,0.938,0.756c0.238,0.311,0.409,0.664,0.515,1.06c0.104,0.395,0.157,0.798,0.157,1.21
					c0,0.411-0.053,0.814-0.157,1.21c-0.105,0.395-0.276,0.748-0.515,1.059c-0.237,0.311-0.55,0.562-0.938,0.756
					c-0.387,0.193-0.859,0.291-1.416,0.291s-1.028-0.098-1.415-0.291c-0.388-0.193-0.7-0.445-0.938-0.756
					c-0.237-0.311-0.409-0.664-0.514-1.059C524.366,203.501,524.314,203.098,524.314,202.687z M525.439,202.687
					c0,0.61,0.077,1.088,0.23,1.433c0.152,0.346,0.334,0.603,0.544,0.771c0.21,0.169,0.419,0.271,0.629,0.308
					s0.375,0.054,0.496,0.054s0.286-0.018,0.496-0.054s0.42-0.139,0.63-0.308c0.209-0.168,0.391-0.425,0.544-0.771
					c0.153-0.345,0.23-0.822,0.23-1.433s-0.077-1.088-0.23-1.434c-0.153-0.345-0.335-0.603-0.544-0.771
					c-0.21-0.169-0.42-0.271-0.63-0.308s-0.375-0.054-0.496-0.054s-0.286,0.018-0.496,0.054s-0.419,0.139-0.629,0.308
					c-0.21,0.168-0.392,0.426-0.544,0.771C525.517,201.599,525.439,202.077,525.439,202.687z"/>
				<path fill="#585A5E" d="M532.82,199.613v0.835l-0.012,0.073c0.081-0.178,0.189-0.337,0.327-0.479
					c0.137-0.141,0.29-0.262,0.459-0.362c0.17-0.102,0.35-0.178,0.539-0.23c0.189-0.052,0.381-0.078,0.574-0.078
					c0.267,0,0.5,0.038,0.702,0.114c0.201,0.077,0.373,0.178,0.515,0.303c0.141,0.125,0.256,0.267,0.345,0.424
					s0.153,0.316,0.193,0.478c0.057-0.121,0.141-0.256,0.254-0.405s0.254-0.292,0.424-0.43c0.169-0.137,0.373-0.252,0.611-0.345
					c0.237-0.093,0.518-0.139,0.841-0.139c0.468,0,0.835,0.095,1.101,0.284c0.267,0.189,0.464,0.413,0.593,0.671
					c0.129,0.259,0.208,0.525,0.236,0.799c0.028,0.274,0.042,0.496,0.042,0.666v3.969H539.5v-3.896c0-0.161-0.01-0.343-0.03-0.545
					c-0.021-0.201-0.07-0.391-0.151-0.568c-0.081-0.177-0.199-0.326-0.356-0.447s-0.374-0.182-0.647-0.182
					c-0.178,0-0.363,0.028-0.557,0.085c-0.193,0.056-0.369,0.159-0.526,0.309c-0.157,0.148-0.287,0.351-0.388,0.604
					s-0.151,0.579-0.151,0.974v3.667h-1.064v-3.885c0-0.226-0.017-0.443-0.049-0.653c-0.032-0.209-0.093-0.395-0.181-0.557
					c-0.089-0.161-0.21-0.292-0.363-0.393s-0.351-0.151-0.593-0.151c-0.218,0-0.426,0.046-0.623,0.139
					c-0.198,0.093-0.371,0.225-0.521,0.394s-0.267,0.377-0.351,0.623c-0.085,0.246-0.128,0.519-0.128,0.816v3.667h-1.064v-6.147
					H532.82z"/>
				<path fill="#585A5E" d="M547.752,203.981c-0.041,0.218-0.115,0.446-0.224,0.684c-0.109,0.238-0.267,0.456-0.473,0.654
					c-0.205,0.197-0.47,0.36-0.792,0.489c-0.323,0.129-0.723,0.194-1.198,0.194c-0.508,0-0.938-0.069-1.288-0.206
					c-0.352-0.137-0.642-0.312-0.872-0.526c-0.229-0.214-0.409-0.449-0.538-0.708c-0.129-0.258-0.224-0.508-0.284-0.75
					s-0.097-0.462-0.109-0.659c-0.012-0.198-0.018-0.346-0.018-0.442c0-0.137,0.008-0.316,0.024-0.538
					c0.016-0.222,0.056-0.456,0.12-0.702s0.162-0.494,0.291-0.744s0.305-0.476,0.526-0.678c0.222-0.201,0.498-0.364,0.829-0.489
					c0.33-0.125,0.733-0.188,1.21-0.188c0.612,0,1.103,0.106,1.47,0.32s0.649,0.482,0.847,0.805
					c0.198,0.322,0.331,0.676,0.399,1.059c0.068,0.384,0.111,0.74,0.127,1.071c0,0.048,0.002,0.099,0.007,0.151
					c0.004,0.052,0.006,0.103,0.006,0.15h-4.731c0,0.267,0.036,0.537,0.109,0.812c0.072,0.273,0.186,0.521,0.339,0.744
					c0.152,0.222,0.353,0.405,0.599,0.55c0.246,0.146,0.546,0.218,0.901,0.218c0.25,0,0.476-0.034,0.678-0.103
					c0.201-0.068,0.373-0.161,0.514-0.278c0.142-0.117,0.255-0.252,0.339-0.405c0.085-0.153,0.144-0.314,0.176-0.484H547.752z
					 M546.687,202.178c-0.008-0.201-0.036-0.423-0.084-0.665c-0.049-0.242-0.136-0.466-0.261-0.672s-0.296-0.377-0.514-0.515
					c-0.218-0.137-0.501-0.205-0.848-0.205c-0.387,0-0.706,0.07-0.955,0.212c-0.251,0.141-0.446,0.316-0.587,0.526
					c-0.142,0.21-0.236,0.434-0.285,0.671c-0.048,0.238-0.072,0.454-0.072,0.647H546.687z"/>
				<path fill="#585A5E" d="M549.592,199.613v-1.839h1.064v1.839h1.307v0.751h-1.307v3.908c0,0.113,0.002,0.22,0.006,0.32
					s0.024,0.191,0.061,0.272s0.099,0.144,0.188,0.188s0.218,0.066,0.388,0.066c0.112,0,0.226-0.01,0.339-0.03
					c0.112-0.02,0.222-0.046,0.326-0.078v0.75c-0.169,0.072-0.351,0.131-0.544,0.175c-0.194,0.045-0.384,0.067-0.569,0.067
					c-0.314,0-0.559-0.049-0.731-0.146c-0.174-0.097-0.299-0.22-0.376-0.369c-0.076-0.149-0.12-0.312-0.133-0.49
					c-0.012-0.177-0.018-0.347-0.018-0.508v-4.126h-1.102v-0.751H549.592z"/>
				<path fill="#585A5E" d="M554.141,197.29v3.183c0.283-0.387,0.596-0.667,0.938-0.841s0.731-0.26,1.167-0.26
					c0.339,0,0.625,0.044,0.859,0.133s0.426,0.206,0.575,0.351c0.148,0.146,0.262,0.305,0.339,0.479
					c0.076,0.173,0.133,0.345,0.169,0.514c0.036,0.17,0.057,0.329,0.061,0.479s0.006,0.264,0.006,0.345v4.09h-1.064v-3.764
					c0-0.177-0.004-0.375-0.013-0.593c-0.008-0.218-0.052-0.421-0.133-0.611c-0.081-0.188-0.208-0.349-0.381-0.478
					c-0.174-0.129-0.426-0.193-0.757-0.193c-0.145,0-0.318,0.024-0.52,0.072c-0.202,0.049-0.396,0.151-0.581,0.309
					s-0.343,0.388-0.472,0.689c-0.13,0.303-0.194,0.708-0.194,1.217v3.352h-1.064v-8.471H554.141z"/>
				<path fill="#585A5E" d="M564.123,205.76v-0.871h-0.024c-0.153,0.266-0.338,0.474-0.557,0.623
					c-0.218,0.149-0.429,0.26-0.635,0.332c-0.206,0.073-0.392,0.117-0.557,0.134c-0.165,0.016-0.276,0.024-0.333,0.024
					c-0.451,0-0.812-0.077-1.083-0.23c-0.27-0.153-0.474-0.347-0.61-0.581c-0.138-0.233-0.227-0.483-0.267-0.75
					c-0.04-0.266-0.061-0.516-0.061-0.75v-4.078h1.064v3.764c0,0.387,0.032,0.701,0.098,0.943c0.064,0.242,0.152,0.434,0.266,0.575
					c0.113,0.141,0.248,0.235,0.405,0.284s0.333,0.072,0.526,0.072c0.443,0,0.787-0.099,1.028-0.296
					c0.242-0.198,0.418-0.426,0.526-0.684c0.109-0.259,0.172-0.513,0.188-0.763c0.017-0.25,0.024-0.432,0.024-0.544v-3.353h1.065
					v6.147H564.123z"/>
				<path fill="#585A5E" d="M567.559,203.933c0.009,0.242,0.061,0.447,0.156,0.617c0.096,0.169,0.222,0.307,0.378,0.411
					s0.332,0.18,0.528,0.224c0.196,0.045,0.395,0.066,0.595,0.066c0.352,0,0.624-0.048,0.816-0.145s0.332-0.21,0.42-0.339
					s0.138-0.259,0.15-0.388c0.012-0.129,0.018-0.226,0.018-0.29c0-0.097-0.01-0.191-0.03-0.284
					c-0.02-0.093-0.074-0.182-0.162-0.267s-0.219-0.165-0.391-0.242c-0.173-0.076-0.407-0.151-0.703-0.224l-0.649-0.146
					c-0.257-0.056-0.501-0.121-0.733-0.193c-0.233-0.072-0.438-0.173-0.613-0.303c-0.177-0.129-0.317-0.296-0.421-0.502
					c-0.104-0.205-0.156-0.47-0.156-0.792c0-0.339,0.068-0.623,0.205-0.854c0.138-0.229,0.318-0.411,0.545-0.544
					c0.226-0.134,0.476-0.229,0.75-0.285c0.274-0.056,0.553-0.084,0.835-0.084c0.524,0,0.945,0.064,1.265,0.193
					c0.318,0.129,0.566,0.288,0.744,0.478c0.177,0.189,0.298,0.392,0.363,0.605c0.064,0.214,0.104,0.405,0.12,0.574h-1.016
					c-0.009-0.088-0.031-0.195-0.067-0.32s-0.105-0.246-0.207-0.363c-0.101-0.116-0.244-0.216-0.431-0.296
					c-0.187-0.081-0.434-0.121-0.741-0.121c-0.033,0-0.118,0.004-0.256,0.012c-0.138,0.009-0.281,0.043-0.432,0.104
					c-0.149,0.06-0.285,0.157-0.407,0.29c-0.121,0.133-0.182,0.32-0.182,0.562c0,0.218,0.046,0.392,0.14,0.521
					c0.093,0.129,0.218,0.229,0.376,0.303c0.157,0.072,0.34,0.131,0.546,0.175c0.207,0.045,0.419,0.091,0.638,0.14
					c0.315,0.072,0.606,0.147,0.874,0.224c0.267,0.077,0.499,0.178,0.697,0.303s0.353,0.288,0.462,0.49
					c0.109,0.201,0.163,0.459,0.163,0.774c0,0.322-0.056,0.595-0.169,0.816s-0.254,0.407-0.424,0.557
					c-0.169,0.149-0.356,0.264-0.562,0.345c-0.205,0.08-0.403,0.141-0.593,0.182c-0.189,0.04-0.355,0.064-0.496,0.072
					c-0.142,0.008-0.236,0.013-0.284,0.013c-0.46,0-0.857-0.055-1.192-0.164c-0.334-0.108-0.615-0.258-0.841-0.447
					s-0.396-0.409-0.508-0.659c-0.113-0.25-0.174-0.517-0.182-0.799H567.559z"/>
				<path fill="#585A5E" d="M575.666,201.428c0-0.201,0.035-0.424,0.104-0.665c0.068-0.242,0.197-0.467,0.387-0.672
					c0.189-0.206,0.456-0.377,0.799-0.515c0.343-0.137,0.784-0.205,1.325-0.205c0.25,0,0.518,0.023,0.805,0.072
					c0.286,0.049,0.552,0.146,0.799,0.29c0.245,0.146,0.449,0.354,0.61,0.623c0.161,0.271,0.238,0.632,0.23,1.083l-0.061,2.844
					c0,0.121,0.002,0.229,0.006,0.32c0.004,0.094,0.026,0.17,0.066,0.23s0.104,0.106,0.193,0.139s0.214,0.045,0.375,0.037v0.75
					c-0.072,0.016-0.143,0.028-0.211,0.036c-0.069,0.008-0.16,0.012-0.272,0.012c-0.146,0-0.28-0.01-0.405-0.03
					c-0.125-0.02-0.234-0.061-0.327-0.121s-0.169-0.148-0.229-0.266s-0.107-0.276-0.14-0.479c-0.104,0.194-0.233,0.359-0.387,0.496
					c-0.153,0.138-0.323,0.251-0.509,0.339c-0.186,0.089-0.381,0.153-0.587,0.194c-0.205,0.04-0.413,0.061-0.623,0.061
					c-0.646,0-1.167-0.147-1.566-0.442c-0.399-0.294-0.6-0.764-0.6-1.409c0-0.267,0.041-0.506,0.121-0.72
					c0.081-0.214,0.234-0.403,0.46-0.569c0.226-0.165,0.532-0.303,0.92-0.411c0.387-0.109,0.891-0.191,1.513-0.248
					c0.226-0.016,0.415-0.032,0.568-0.049c0.153-0.016,0.276-0.05,0.369-0.103s0.159-0.131,0.199-0.236
					c0.041-0.104,0.061-0.258,0.061-0.459c0-0.073-0.008-0.178-0.023-0.315c-0.017-0.137-0.069-0.273-0.158-0.411
					c-0.089-0.137-0.226-0.256-0.411-0.356s-0.447-0.151-0.786-0.151c-0.097,0-0.236,0.008-0.418,0.024
					c-0.182,0.016-0.36,0.066-0.538,0.15c-0.178,0.085-0.331,0.214-0.46,0.388s-0.189,0.422-0.182,0.744H575.666z M579.659,202.614
					c-0.08,0.064-0.164,0.111-0.252,0.14s-0.185,0.05-0.288,0.066s-0.222,0.03-0.354,0.042c-0.132,0.013-0.282,0.03-0.45,0.055
					c-0.231,0.04-0.454,0.079-0.666,0.115s-0.398,0.093-0.559,0.169c-0.16,0.077-0.286,0.188-0.378,0.333s-0.138,0.339-0.138,0.581
					c0,0.362,0.109,0.643,0.33,0.841c0.22,0.197,0.502,0.296,0.847,0.296c0.207,0,0.418-0.03,0.63-0.091s0.408-0.169,0.588-0.326
					c0.181-0.157,0.33-0.373,0.45-0.647s0.192-0.625,0.217-1.053L579.659,202.614z"/>
				<path fill="#585A5E" d="M583.628,199.613v0.859c0.21-0.307,0.492-0.566,0.848-0.78c0.354-0.214,0.774-0.32,1.258-0.32
					c0.403,0,0.736,0.062,0.999,0.188c0.262,0.125,0.468,0.292,0.617,0.502c0.148,0.21,0.254,0.454,0.314,0.731
					c0.061,0.278,0.091,0.571,0.091,0.878v4.09h-1.065v-3.764c0-0.161-0.006-0.351-0.018-0.568
					c-0.013-0.218-0.057-0.424-0.134-0.617c-0.076-0.193-0.203-0.356-0.381-0.49c-0.178-0.133-0.432-0.199-0.763-0.199
					c-0.145,0-0.318,0.024-0.52,0.072c-0.202,0.049-0.396,0.151-0.581,0.309s-0.343,0.388-0.472,0.689
					c-0.13,0.303-0.194,0.708-0.194,1.217v3.352h-1.064v-6.147H583.628z"/>
				<path fill="#585A5E" d="M595.002,197.29v8.471h-0.992v-0.848h-0.036c-0.049,0.098-0.121,0.21-0.218,0.339
					c-0.098,0.13-0.227,0.248-0.388,0.357c-0.161,0.108-0.359,0.201-0.593,0.278c-0.234,0.076-0.513,0.115-0.835,0.115
					c-0.452,0-0.852-0.081-1.198-0.242s-0.637-0.39-0.871-0.684c-0.233-0.295-0.413-0.646-0.538-1.053s-0.188-0.857-0.188-1.35
					c0-0.322,0.032-0.676,0.097-1.059s0.197-0.742,0.399-1.077c0.201-0.334,0.481-0.612,0.841-0.835
					c0.358-0.222,0.837-0.332,1.434-0.332c0.411,0,0.789,0.068,1.132,0.205c0.343,0.138,0.639,0.416,0.889,0.835v-3.122H595.002z
					 M590.271,202.674c0,0.581,0.07,1.043,0.212,1.386c0.141,0.343,0.311,0.601,0.508,0.774c0.198,0.174,0.405,0.286,0.623,0.339
					s0.403,0.078,0.557,0.078c0.234,0,0.462-0.046,0.684-0.139c0.223-0.093,0.418-0.242,0.587-0.448
					c0.17-0.205,0.307-0.474,0.412-0.805c0.104-0.33,0.157-0.733,0.157-1.21c0-0.443-0.051-0.824-0.151-1.143
					c-0.102-0.319-0.24-0.581-0.418-0.787c-0.177-0.205-0.381-0.356-0.61-0.453c-0.23-0.098-0.471-0.146-0.721-0.146
					c-0.258,0-0.498,0.048-0.72,0.146c-0.222,0.097-0.415,0.248-0.581,0.453c-0.165,0.206-0.296,0.47-0.393,0.793
					C590.319,201.835,590.271,202.223,590.271,202.674z"/>
				<path fill="#585A5E" d="M606.944,201.343v4.417h-0.883v-1.367h-0.024c-0.242,0.508-0.605,0.905-1.089,1.191
					c-0.484,0.286-1.061,0.43-1.73,0.43c-0.508,0-1-0.079-1.477-0.236c-0.476-0.157-0.899-0.415-1.271-0.774
					c-0.371-0.358-0.669-0.83-0.896-1.415c-0.226-0.585-0.338-1.301-0.338-2.148c0-0.718,0.097-1.351,0.29-1.899
					s0.472-1.008,0.835-1.379s0.799-0.651,1.307-0.842c0.508-0.189,1.077-0.284,1.706-0.284c0.564,0,1.055,0.079,1.471,0.236
					c0.415,0.157,0.762,0.365,1.04,0.623s0.494,0.553,0.647,0.883c0.153,0.331,0.25,0.67,0.29,1.017h-1.137
					c-0.017-0.193-0.065-0.396-0.146-0.61c-0.081-0.214-0.21-0.407-0.388-0.581c-0.177-0.174-0.413-0.318-0.707-0.436
					c-0.295-0.117-0.66-0.176-1.096-0.176c-0.443,0-0.824,0.064-1.144,0.193c-0.318,0.13-0.585,0.299-0.798,0.509
					c-0.214,0.21-0.386,0.443-0.515,0.701c-0.129,0.259-0.226,0.517-0.29,0.774c-0.065,0.259-0.107,0.503-0.127,0.732
					c-0.021,0.229-0.03,0.422-0.03,0.575c0,0.104,0.008,0.266,0.023,0.483c0.017,0.218,0.057,0.458,0.121,0.72
					c0.063,0.263,0.158,0.535,0.283,0.817c0.124,0.282,0.293,0.538,0.506,0.769c0.212,0.229,0.478,0.419,0.795,0.568
					s0.7,0.224,1.15,0.224c0.521,0,0.947-0.095,1.276-0.284s0.589-0.424,0.777-0.702s0.319-0.578,0.392-0.901
					c0.072-0.322,0.108-0.612,0.108-0.871h-2.396v-0.956H606.944z"/>
				<path fill="#585A5E" d="M611.954,200.122c-0.363,0.016-0.684,0.064-0.962,0.146c-0.278,0.08-0.517,0.205-0.714,0.375
					c-0.198,0.169-0.355,0.387-0.472,0.653c-0.117,0.266-0.188,0.593-0.212,0.979c-0.008,0.113-0.013,0.223-0.013,0.327
					s0,0.214,0,0.326v2.832h-1.064v-6.147h1.064v1.187h0.024c0.073-0.226,0.18-0.426,0.321-0.6c0.141-0.173,0.302-0.318,0.483-0.436
					c0.182-0.116,0.377-0.207,0.587-0.271s0.424-0.102,0.642-0.109l0.314-0.012V200.122z"/>
				<path fill="#585A5E" d="M612.353,201.428c0-0.201,0.035-0.424,0.104-0.665c0.068-0.242,0.197-0.467,0.387-0.672
					c0.189-0.206,0.456-0.377,0.799-0.515c0.343-0.137,0.784-0.205,1.325-0.205c0.25,0,0.518,0.023,0.805,0.072
					c0.286,0.049,0.552,0.146,0.799,0.29c0.245,0.146,0.449,0.354,0.61,0.623c0.161,0.271,0.238,0.632,0.23,1.083l-0.061,2.844
					c0,0.121,0.002,0.229,0.006,0.32c0.004,0.094,0.026,0.17,0.066,0.23s0.104,0.106,0.193,0.139s0.214,0.045,0.375,0.037v0.75
					c-0.072,0.016-0.143,0.028-0.211,0.036c-0.069,0.008-0.16,0.012-0.272,0.012c-0.146,0-0.28-0.01-0.405-0.03
					c-0.125-0.02-0.234-0.061-0.327-0.121s-0.169-0.148-0.229-0.266s-0.107-0.276-0.14-0.479c-0.104,0.194-0.233,0.359-0.387,0.496
					c-0.153,0.138-0.323,0.251-0.509,0.339c-0.186,0.089-0.381,0.153-0.587,0.194c-0.205,0.04-0.413,0.061-0.623,0.061
					c-0.646,0-1.167-0.147-1.566-0.442c-0.399-0.294-0.6-0.764-0.6-1.409c0-0.267,0.041-0.506,0.121-0.72
					c0.081-0.214,0.234-0.403,0.46-0.569c0.226-0.165,0.532-0.303,0.92-0.411c0.387-0.109,0.891-0.191,1.513-0.248
					c0.226-0.016,0.415-0.032,0.568-0.049c0.153-0.016,0.276-0.05,0.369-0.103s0.159-0.131,0.199-0.236
					c0.041-0.104,0.061-0.258,0.061-0.459c0-0.073-0.008-0.178-0.023-0.315c-0.017-0.137-0.069-0.273-0.158-0.411
					c-0.089-0.137-0.226-0.256-0.411-0.356s-0.447-0.151-0.786-0.151c-0.097,0-0.236,0.008-0.418,0.024
					c-0.182,0.016-0.36,0.066-0.538,0.15c-0.178,0.085-0.331,0.214-0.46,0.388s-0.189,0.422-0.182,0.744H612.353z M616.346,202.614
					c-0.08,0.064-0.164,0.111-0.252,0.14s-0.185,0.05-0.288,0.066s-0.222,0.03-0.354,0.042c-0.132,0.013-0.282,0.03-0.45,0.055
					c-0.231,0.04-0.454,0.079-0.666,0.115s-0.398,0.093-0.559,0.169c-0.16,0.077-0.286,0.188-0.378,0.333s-0.138,0.339-0.138,0.581
					c0,0.362,0.109,0.643,0.33,0.841c0.22,0.197,0.502,0.296,0.847,0.296c0.207,0,0.418-0.03,0.63-0.091s0.408-0.169,0.588-0.326
					c0.181-0.157,0.33-0.373,0.45-0.647s0.192-0.625,0.217-1.053L616.346,202.614z"/>
				<path fill="#585A5E" d="M622.081,200.364h-1.343v5.396h-1.064v-5.396h-1.138v-0.751h1.138v-0.835
					c0-0.532,0.133-0.921,0.399-1.167c0.266-0.246,0.673-0.369,1.222-0.369c0.113,0,0.25,0.006,0.411,0.018
					c0.162,0.013,0.286,0.022,0.375,0.03v0.751c-0.258-0.017-0.434-0.022-0.526-0.019s-0.167,0.006-0.224,0.006
					c-0.145,0-0.258,0.032-0.339,0.097c-0.08,0.065-0.139,0.142-0.175,0.23c-0.037,0.089-0.059,0.182-0.066,0.278
					c-0.009,0.097-0.013,0.178-0.013,0.242v0.737h1.343V200.364z"/>
				<path fill="#585A5E" d="M622.903,201.428c0-0.201,0.035-0.424,0.104-0.665c0.068-0.242,0.197-0.467,0.387-0.672
					c0.189-0.206,0.456-0.377,0.799-0.515c0.343-0.137,0.784-0.205,1.325-0.205c0.25,0,0.518,0.023,0.805,0.072
					c0.286,0.049,0.552,0.146,0.799,0.29c0.245,0.146,0.449,0.354,0.61,0.623c0.161,0.271,0.238,0.632,0.23,1.083l-0.061,2.844
					c0,0.121,0.002,0.229,0.006,0.32c0.004,0.094,0.026,0.17,0.066,0.23s0.104,0.106,0.193,0.139s0.214,0.045,0.375,0.037v0.75
					c-0.072,0.016-0.143,0.028-0.211,0.036c-0.069,0.008-0.16,0.012-0.272,0.012c-0.146,0-0.28-0.01-0.405-0.03
					c-0.125-0.02-0.234-0.061-0.327-0.121s-0.169-0.148-0.229-0.266s-0.107-0.276-0.14-0.479c-0.104,0.194-0.233,0.359-0.387,0.496
					c-0.153,0.138-0.323,0.251-0.509,0.339c-0.186,0.089-0.381,0.153-0.587,0.194c-0.205,0.04-0.413,0.061-0.623,0.061
					c-0.646,0-1.167-0.147-1.566-0.442c-0.399-0.294-0.6-0.764-0.6-1.409c0-0.267,0.041-0.506,0.121-0.72
					c0.081-0.214,0.234-0.403,0.46-0.569c0.226-0.165,0.532-0.303,0.92-0.411c0.387-0.109,0.891-0.191,1.513-0.248
					c0.226-0.016,0.415-0.032,0.568-0.049c0.153-0.016,0.276-0.05,0.369-0.103s0.159-0.131,0.199-0.236
					c0.041-0.104,0.061-0.258,0.061-0.459c0-0.073-0.008-0.178-0.023-0.315c-0.017-0.137-0.069-0.273-0.158-0.411
					c-0.089-0.137-0.226-0.256-0.411-0.356s-0.447-0.151-0.786-0.151c-0.097,0-0.236,0.008-0.418,0.024
					c-0.182,0.016-0.36,0.066-0.538,0.15c-0.178,0.085-0.331,0.214-0.46,0.388s-0.189,0.422-0.182,0.744H622.903z M626.896,202.614
					c-0.08,0.064-0.164,0.111-0.252,0.14s-0.185,0.05-0.288,0.066s-0.222,0.03-0.354,0.042c-0.132,0.013-0.282,0.03-0.45,0.055
					c-0.231,0.04-0.454,0.079-0.666,0.115s-0.398,0.093-0.559,0.169c-0.16,0.077-0.286,0.188-0.378,0.333s-0.138,0.339-0.138,0.581
					c0,0.362,0.109,0.643,0.33,0.841c0.22,0.197,0.502,0.296,0.847,0.296c0.207,0,0.418-0.03,0.63-0.091s0.408-0.169,0.588-0.326
					c0.181-0.157,0.33-0.373,0.45-0.647s0.192-0.625,0.217-1.053L626.896,202.614z"/>
				<path fill="#585A5E" d="M630.865,199.613v0.859c0.21-0.307,0.492-0.566,0.848-0.78c0.354-0.214,0.774-0.32,1.258-0.32
					c0.403,0,0.736,0.062,0.999,0.188c0.262,0.125,0.468,0.292,0.617,0.502c0.148,0.21,0.254,0.454,0.314,0.731
					c0.061,0.278,0.091,0.571,0.091,0.878v4.09h-1.065v-3.764c0-0.161-0.006-0.351-0.018-0.568
					c-0.013-0.218-0.057-0.424-0.134-0.617c-0.076-0.193-0.203-0.356-0.381-0.49c-0.178-0.133-0.432-0.199-0.763-0.199
					c-0.145,0-0.318,0.024-0.52,0.072c-0.202,0.049-0.396,0.151-0.581,0.309s-0.343,0.388-0.472,0.689
					c-0.13,0.303-0.194,0.708-0.194,1.217v3.352h-1.064v-6.147H630.865z"/>
				<path fill="#585A5E" d="M636.528,201.428c0-0.201,0.035-0.424,0.104-0.665c0.068-0.242,0.197-0.467,0.387-0.672
					c0.189-0.206,0.456-0.377,0.799-0.515c0.343-0.137,0.784-0.205,1.325-0.205c0.25,0,0.518,0.023,0.805,0.072
					c0.286,0.049,0.552,0.146,0.799,0.29c0.245,0.146,0.449,0.354,0.61,0.623c0.161,0.271,0.238,0.632,0.23,1.083l-0.061,2.844
					c0,0.121,0.002,0.229,0.006,0.32c0.004,0.094,0.026,0.17,0.066,0.23s0.104,0.106,0.193,0.139s0.214,0.045,0.375,0.037v0.75
					c-0.072,0.016-0.143,0.028-0.211,0.036c-0.069,0.008-0.16,0.012-0.272,0.012c-0.146,0-0.28-0.01-0.405-0.03
					c-0.125-0.02-0.234-0.061-0.327-0.121s-0.169-0.148-0.229-0.266s-0.107-0.276-0.14-0.479c-0.104,0.194-0.233,0.359-0.387,0.496
					c-0.153,0.138-0.323,0.251-0.509,0.339c-0.186,0.089-0.381,0.153-0.587,0.194c-0.205,0.04-0.413,0.061-0.623,0.061
					c-0.646,0-1.167-0.147-1.566-0.442c-0.399-0.294-0.6-0.764-0.6-1.409c0-0.267,0.041-0.506,0.121-0.72
					c0.081-0.214,0.234-0.403,0.46-0.569c0.226-0.165,0.532-0.303,0.92-0.411c0.387-0.109,0.891-0.191,1.513-0.248
					c0.226-0.016,0.415-0.032,0.568-0.049c0.153-0.016,0.276-0.05,0.369-0.103s0.159-0.131,0.199-0.236
					c0.041-0.104,0.061-0.258,0.061-0.459c0-0.073-0.008-0.178-0.023-0.315c-0.017-0.137-0.069-0.273-0.158-0.411
					c-0.089-0.137-0.226-0.256-0.411-0.356s-0.447-0.151-0.786-0.151c-0.097,0-0.236,0.008-0.418,0.024
					c-0.182,0.016-0.36,0.066-0.538,0.15c-0.178,0.085-0.331,0.214-0.46,0.388s-0.189,0.422-0.182,0.744H636.528z M640.521,202.614
					c-0.08,0.064-0.164,0.111-0.252,0.14s-0.185,0.05-0.288,0.066s-0.222,0.03-0.354,0.042c-0.132,0.013-0.282,0.03-0.45,0.055
					c-0.231,0.04-0.454,0.079-0.666,0.115s-0.398,0.093-0.559,0.169c-0.16,0.077-0.286,0.188-0.378,0.333s-0.138,0.339-0.138,0.581
					c0,0.362,0.109,0.643,0.33,0.841c0.22,0.197,0.502,0.296,0.847,0.296c0.207,0,0.418-0.03,0.63-0.091s0.408-0.169,0.588-0.326
					c0.181-0.157,0.33-0.373,0.45-0.647s0.192-0.625,0.217-1.053L640.521,202.614z"/>
				<path fill="#585A5E" d="M643.546,207.987c0.357-0.687,0.637-1.312,0.836-1.876s0.348-1.07,0.445-1.519
					c0.098-0.447,0.156-0.835,0.177-1.161c0.021-0.327,0.03-0.591,0.03-0.793c0-0.178-0.01-0.426-0.03-0.744
					s-0.079-0.706-0.177-1.161c-0.098-0.456-0.246-0.973-0.445-1.549c-0.199-0.577-0.479-1.208-0.836-1.895h0.799
					c0.395,0.63,0.708,1.206,0.938,1.73s0.405,1.005,0.526,1.44s0.199,0.833,0.236,1.191c0.036,0.359,0.054,0.688,0.054,0.986
					c0,0.299-0.018,0.627-0.054,0.986c-0.037,0.358-0.115,0.758-0.236,1.197c-0.121,0.44-0.297,0.92-0.526,1.44
					s-0.543,1.095-0.938,1.725H643.546z"/>
			</g>
		</g>
	</g>
	<g>
		
			<rect x="494.818" y="230.181" fill="none" stroke="#585A5E" stroke-width="1.2281" stroke-miterlimit="10" width="165.194" height="46.5"/>
		<g>
			<g>
				<path fill="#585A5E" d="M557.311,245.246v-0.956h6.643v0.956h-2.746v7.515h-1.138v-7.515H557.311z"/>
				<path fill="#585A5E" d="M567.692,247.122c-0.363,0.016-0.684,0.064-0.962,0.146c-0.278,0.08-0.517,0.205-0.714,0.375
					c-0.198,0.169-0.355,0.387-0.472,0.653c-0.117,0.266-0.188,0.593-0.212,0.979c-0.008,0.113-0.013,0.223-0.013,0.327
					s0,0.214,0,0.326v2.832h-1.064v-6.147h1.064v1.187h0.024c0.073-0.226,0.18-0.426,0.321-0.6c0.141-0.173,0.302-0.318,0.483-0.436
					c0.182-0.116,0.377-0.207,0.587-0.271s0.424-0.102,0.642-0.109l0.314-0.012V247.122z"/>
				<path fill="#585A5E" d="M568.091,248.428c0-0.201,0.035-0.424,0.104-0.665c0.068-0.242,0.197-0.467,0.387-0.672
					c0.189-0.206,0.456-0.377,0.799-0.515c0.343-0.137,0.784-0.205,1.325-0.205c0.25,0,0.518,0.023,0.805,0.072
					c0.286,0.049,0.552,0.146,0.799,0.29c0.245,0.146,0.449,0.354,0.61,0.623c0.161,0.271,0.238,0.632,0.23,1.083l-0.061,2.844
					c0,0.121,0.002,0.229,0.006,0.32c0.004,0.094,0.026,0.17,0.066,0.23s0.104,0.106,0.193,0.139s0.214,0.045,0.375,0.037v0.75
					c-0.072,0.016-0.143,0.028-0.211,0.036c-0.069,0.008-0.16,0.012-0.272,0.012c-0.146,0-0.28-0.01-0.405-0.03
					c-0.125-0.02-0.234-0.061-0.327-0.121s-0.169-0.148-0.229-0.266s-0.107-0.276-0.14-0.479c-0.104,0.194-0.233,0.359-0.387,0.496
					c-0.153,0.138-0.323,0.251-0.509,0.339c-0.186,0.089-0.381,0.153-0.587,0.194c-0.205,0.04-0.413,0.061-0.623,0.061
					c-0.646,0-1.167-0.147-1.566-0.442c-0.399-0.294-0.6-0.764-0.6-1.409c0-0.267,0.041-0.506,0.121-0.72
					c0.081-0.214,0.234-0.403,0.46-0.569c0.226-0.165,0.532-0.303,0.92-0.411c0.387-0.109,0.891-0.191,1.513-0.248
					c0.226-0.016,0.415-0.032,0.568-0.049c0.153-0.016,0.276-0.05,0.369-0.103s0.159-0.131,0.199-0.236
					c0.041-0.104,0.061-0.258,0.061-0.459c0-0.073-0.008-0.178-0.023-0.315c-0.017-0.137-0.069-0.273-0.158-0.411
					c-0.089-0.137-0.226-0.256-0.411-0.356s-0.447-0.151-0.786-0.151c-0.097,0-0.236,0.008-0.418,0.024
					c-0.182,0.016-0.36,0.066-0.538,0.15c-0.178,0.085-0.331,0.214-0.46,0.388s-0.189,0.422-0.182,0.744H568.091z M572.084,249.614
					c-0.08,0.064-0.164,0.111-0.252,0.14s-0.185,0.05-0.288,0.066s-0.222,0.03-0.354,0.042c-0.132,0.013-0.282,0.03-0.45,0.055
					c-0.231,0.04-0.454,0.079-0.666,0.115s-0.398,0.093-0.559,0.169c-0.16,0.077-0.286,0.188-0.378,0.333s-0.138,0.339-0.138,0.581
					c0,0.362,0.109,0.643,0.33,0.841c0.22,0.197,0.502,0.296,0.847,0.296c0.207,0,0.418-0.03,0.63-0.091s0.408-0.169,0.588-0.326
					c0.181-0.157,0.33-0.373,0.45-0.647s0.192-0.625,0.217-1.053L572.084,249.614z"/>
				<path fill="#585A5E" d="M580.312,250.57c-0.017,0.186-0.062,0.416-0.14,0.689c-0.076,0.274-0.21,0.541-0.398,0.799
					c-0.19,0.259-0.456,0.48-0.799,0.666s-0.789,0.278-1.337,0.278c-0.105,0-0.251-0.009-0.436-0.024
					c-0.187-0.017-0.392-0.057-0.617-0.121c-0.227-0.064-0.454-0.167-0.684-0.309c-0.23-0.142-0.438-0.335-0.624-0.581
					s-0.338-0.559-0.459-0.938s-0.182-0.843-0.182-1.392c0-0.354,0.04-0.726,0.121-1.113c0.08-0.387,0.229-0.74,0.447-1.059
					s0.517-0.581,0.896-0.786c0.379-0.206,0.867-0.309,1.464-0.309c0.436,0,0.814,0.059,1.138,0.175
					c0.322,0.117,0.593,0.276,0.811,0.479c0.218,0.201,0.39,0.432,0.515,0.689s0.203,0.532,0.235,0.823h-1.016
					c-0.057-0.339-0.158-0.605-0.303-0.799c-0.146-0.194-0.303-0.335-0.472-0.424c-0.17-0.089-0.337-0.143-0.503-0.163
					c-0.165-0.021-0.292-0.03-0.381-0.03c-0.331,0-0.613,0.066-0.847,0.199c-0.234,0.134-0.424,0.312-0.569,0.539
					c-0.145,0.226-0.25,0.492-0.314,0.798c-0.064,0.307-0.097,0.634-0.097,0.98s0.036,0.678,0.109,0.992
					c0.072,0.314,0.183,0.593,0.332,0.835s0.345,0.434,0.587,0.575c0.242,0.141,0.532,0.211,0.871,0.211
					c0.299,0,0.551-0.056,0.757-0.169c0.205-0.113,0.373-0.252,0.502-0.418c0.129-0.165,0.222-0.347,0.278-0.544
					s0.089-0.381,0.097-0.551H580.312z"/>
				<path fill="#585A5E" d="M581.595,244.29h1.065v1.113h-1.065V244.29z M582.66,246.613v6.147h-1.065v-6.147H582.66z"/>
				<path fill="#585A5E" d="M585.442,246.613v0.859c0.21-0.307,0.492-0.566,0.848-0.78c0.354-0.214,0.774-0.32,1.258-0.32
					c0.403,0,0.736,0.062,0.999,0.188c0.262,0.125,0.468,0.292,0.617,0.502c0.148,0.21,0.254,0.454,0.314,0.731
					c0.061,0.278,0.091,0.571,0.091,0.878v4.09h-1.065v-3.764c0-0.161-0.006-0.351-0.018-0.568
					c-0.013-0.218-0.057-0.424-0.134-0.617c-0.076-0.193-0.203-0.356-0.381-0.49c-0.178-0.133-0.432-0.199-0.763-0.199
					c-0.145,0-0.318,0.024-0.52,0.072c-0.202,0.049-0.396,0.151-0.581,0.309s-0.343,0.388-0.472,0.689
					c-0.13,0.303-0.194,0.708-0.194,1.217v3.352h-1.064v-6.147H585.442z"/>
				<path fill="#585A5E" d="M592.449,253.454c0.048,0.18,0.129,0.326,0.242,0.439c0.112,0.114,0.243,0.206,0.393,0.275
					s0.311,0.115,0.484,0.141c0.173,0.023,0.341,0.036,0.502,0.036c0.42,0,0.742-0.085,0.968-0.255
					c0.227-0.171,0.394-0.365,0.503-0.584c0.108-0.219,0.173-0.434,0.193-0.645c0.02-0.21,0.03-0.356,0.03-0.438v-0.669
					c-0.146,0.234-0.287,0.43-0.424,0.587s-0.284,0.284-0.441,0.382c-0.157,0.097-0.327,0.167-0.509,0.211
					c-0.181,0.045-0.385,0.067-0.61,0.067c-0.363,0-0.712-0.065-1.047-0.194s-0.629-0.328-0.884-0.599
					c-0.254-0.271-0.457-0.617-0.61-1.041c-0.153-0.423-0.23-0.934-0.23-1.53c0-0.097,0.004-0.244,0.013-0.441
					c0.008-0.198,0.036-0.418,0.084-0.659c0.049-0.242,0.128-0.49,0.236-0.745c0.109-0.254,0.262-0.487,0.46-0.701
					c0.197-0.214,0.447-0.388,0.75-0.521s0.676-0.199,1.119-0.199c0.509,0,0.942,0.093,1.301,0.278
					c0.359,0.186,0.636,0.455,0.829,0.811h0.036v-0.848h0.992v5.99c0,0.395-0.055,0.729-0.163,1.004
					c-0.109,0.274-0.248,0.504-0.418,0.689c-0.169,0.186-0.36,0.331-0.574,0.436c-0.214,0.105-0.422,0.186-0.623,0.242
					c-0.202,0.057-0.392,0.091-0.569,0.104c-0.177,0.012-0.314,0.018-0.411,0.018c-0.146,0-0.347-0.008-0.604-0.023
					c-0.259-0.017-0.522-0.075-0.793-0.176s-0.521-0.262-0.75-0.482c-0.23-0.222-0.394-0.541-0.49-0.96H592.449z M594.022,252.251
					c0.097,0,0.245-0.025,0.447-0.078c0.201-0.053,0.403-0.17,0.605-0.352c0.201-0.181,0.379-0.445,0.532-0.792
					s0.229-0.818,0.229-1.416c0-0.774-0.161-1.383-0.483-1.827c-0.323-0.443-0.799-0.665-1.429-0.665
					c-0.298,0-0.55,0.051-0.756,0.151s-0.375,0.228-0.508,0.381c-0.134,0.153-0.234,0.327-0.303,0.521s-0.121,0.381-0.157,0.562
					s-0.057,0.351-0.061,0.508s-0.006,0.276-0.006,0.357c0,0.621,0.074,1.109,0.224,1.464c0.149,0.355,0.326,0.619,0.532,0.793
					c0.206,0.173,0.415,0.282,0.629,0.326C593.733,252.23,593.901,252.251,594.022,252.251z"/>
			</g>
		</g>
		<g>
			<g>
				<path fill="#585A5E" d="M557.172,256.29c-0.553,1.065-0.939,2.045-1.159,2.94s-0.329,1.698-0.329,2.408
					c0,0.452,0.039,0.909,0.116,1.373s0.183,0.926,0.316,1.386c0.135,0.46,0.291,0.907,0.47,1.343s0.374,0.852,0.586,1.247h-0.799
					c-0.371-0.63-0.671-1.188-0.901-1.676c-0.229-0.488-0.407-0.94-0.532-1.355c-0.125-0.416-0.21-0.809-0.254-1.18
					c-0.045-0.371-0.066-0.75-0.066-1.138c0-0.387,0.021-0.767,0.066-1.138c0.044-0.371,0.129-0.764,0.254-1.18
					c0.125-0.415,0.303-0.867,0.532-1.354c0.23-0.488,0.53-1.047,0.901-1.677H557.172z"/>
				<path fill="#585A5E" d="M559.592,261.953c0,0.339,0.023,0.638,0.072,0.896c0.049,0.259,0.127,0.478,0.236,0.659
					c0.108,0.182,0.256,0.319,0.441,0.412s0.424,0.139,0.714,0.139c0.298,0,0.54-0.053,0.726-0.157s0.329-0.25,0.43-0.436
					s0.168-0.409,0.2-0.672c0.032-0.262,0.048-0.546,0.048-0.853v-5.651h1.138v5.542c0,0.557-0.047,1.035-0.14,1.435
					c-0.093,0.398-0.239,0.728-0.441,0.985c-0.201,0.259-0.466,0.45-0.792,0.575c-0.327,0.125-0.721,0.188-1.18,0.188
					c-0.219,0-0.475-0.022-0.769-0.066c-0.295-0.045-0.577-0.155-0.848-0.333c-0.27-0.178-0.5-0.441-0.689-0.793
					c-0.189-0.351-0.284-0.828-0.284-1.434v-0.436H559.592z"/>
				<path fill="#585A5E" d="M565.133,260.428c0-0.201,0.035-0.424,0.104-0.665c0.068-0.242,0.197-0.467,0.387-0.672
					c0.189-0.206,0.456-0.377,0.799-0.515c0.343-0.137,0.784-0.205,1.325-0.205c0.25,0,0.518,0.023,0.805,0.072
					c0.286,0.049,0.552,0.146,0.799,0.29c0.245,0.146,0.449,0.354,0.61,0.623c0.161,0.271,0.238,0.632,0.23,1.083l-0.061,2.844
					c0,0.121,0.002,0.229,0.006,0.32c0.004,0.094,0.026,0.17,0.066,0.23s0.104,0.106,0.193,0.139s0.214,0.045,0.375,0.037v0.75
					c-0.072,0.016-0.143,0.028-0.211,0.036c-0.069,0.008-0.16,0.012-0.272,0.012c-0.146,0-0.28-0.01-0.405-0.03
					c-0.125-0.02-0.234-0.061-0.327-0.121s-0.169-0.148-0.229-0.266s-0.107-0.276-0.14-0.479c-0.104,0.194-0.233,0.359-0.387,0.496
					c-0.153,0.138-0.323,0.251-0.509,0.339c-0.186,0.089-0.381,0.153-0.587,0.194c-0.205,0.04-0.413,0.061-0.623,0.061
					c-0.646,0-1.167-0.147-1.566-0.442c-0.399-0.294-0.6-0.764-0.6-1.409c0-0.267,0.041-0.506,0.121-0.72
					c0.081-0.214,0.234-0.403,0.46-0.569c0.226-0.165,0.532-0.303,0.92-0.411c0.387-0.109,0.891-0.191,1.513-0.248
					c0.226-0.016,0.415-0.032,0.568-0.049c0.153-0.016,0.276-0.05,0.369-0.103s0.159-0.131,0.199-0.236
					c0.041-0.104,0.061-0.258,0.061-0.459c0-0.073-0.008-0.178-0.023-0.315c-0.017-0.137-0.069-0.273-0.158-0.411
					c-0.089-0.137-0.226-0.256-0.411-0.356s-0.447-0.151-0.786-0.151c-0.097,0-0.236,0.008-0.418,0.024
					c-0.182,0.016-0.36,0.066-0.538,0.15c-0.178,0.085-0.331,0.214-0.46,0.388s-0.189,0.422-0.182,0.744H565.133z M569.126,261.614
					c-0.08,0.064-0.164,0.111-0.252,0.14s-0.185,0.05-0.288,0.066s-0.222,0.03-0.354,0.042c-0.132,0.013-0.282,0.03-0.45,0.055
					c-0.231,0.04-0.454,0.079-0.666,0.115s-0.398,0.093-0.559,0.169c-0.16,0.077-0.286,0.188-0.378,0.333s-0.138,0.339-0.138,0.581
					c0,0.362,0.109,0.643,0.33,0.841c0.22,0.197,0.502,0.296,0.847,0.296c0.207,0,0.418-0.03,0.63-0.091s0.408-0.169,0.588-0.326
					c0.181-0.157,0.33-0.373,0.45-0.647s0.192-0.625,0.217-1.053L569.126,261.614z"/>
				<path fill="#585A5E" d="M577.476,262.981c-0.041,0.218-0.115,0.446-0.224,0.684c-0.109,0.238-0.267,0.456-0.473,0.654
					c-0.205,0.197-0.47,0.36-0.792,0.489c-0.323,0.129-0.723,0.194-1.198,0.194c-0.508,0-0.938-0.069-1.288-0.206
					c-0.352-0.137-0.642-0.312-0.872-0.526c-0.229-0.214-0.409-0.449-0.538-0.708c-0.129-0.258-0.224-0.508-0.284-0.75
					s-0.097-0.462-0.109-0.659c-0.012-0.198-0.018-0.346-0.018-0.442c0-0.137,0.008-0.316,0.024-0.538
					c0.016-0.222,0.056-0.456,0.12-0.702s0.162-0.494,0.291-0.744s0.305-0.476,0.526-0.678c0.222-0.201,0.498-0.364,0.829-0.489
					c0.33-0.125,0.733-0.188,1.21-0.188c0.612,0,1.103,0.106,1.47,0.32s0.649,0.482,0.847,0.805
					c0.198,0.322,0.331,0.676,0.399,1.059c0.068,0.384,0.111,0.74,0.127,1.071c0,0.048,0.002,0.099,0.007,0.151
					c0.004,0.052,0.006,0.103,0.006,0.15h-4.731c0,0.267,0.036,0.537,0.109,0.812c0.072,0.273,0.186,0.521,0.339,0.744
					c0.152,0.222,0.353,0.405,0.599,0.55c0.246,0.146,0.546,0.218,0.901,0.218c0.25,0,0.476-0.034,0.678-0.103
					c0.201-0.068,0.373-0.161,0.514-0.278c0.142-0.117,0.255-0.252,0.339-0.405c0.085-0.153,0.144-0.314,0.176-0.484H577.476z
					 M576.41,261.178c-0.008-0.201-0.036-0.423-0.084-0.665c-0.049-0.242-0.136-0.466-0.261-0.672s-0.296-0.377-0.514-0.515
					c-0.218-0.137-0.501-0.205-0.848-0.205c-0.387,0-0.706,0.07-0.955,0.212c-0.251,0.141-0.446,0.316-0.587,0.526
					c-0.142,0.21-0.236,0.434-0.285,0.671c-0.048,0.238-0.072,0.454-0.072,0.647H576.41z"/>
				<path fill="#585A5E" d="M580.064,265.454c0.048,0.18,0.129,0.326,0.242,0.439c0.112,0.114,0.243,0.206,0.393,0.275
					s0.311,0.115,0.484,0.141c0.173,0.023,0.341,0.036,0.502,0.036c0.42,0,0.742-0.085,0.968-0.255
					c0.227-0.171,0.394-0.365,0.503-0.584c0.108-0.219,0.173-0.434,0.193-0.645c0.02-0.21,0.03-0.356,0.03-0.438v-0.669
					c-0.146,0.234-0.287,0.43-0.424,0.587s-0.284,0.284-0.441,0.382c-0.157,0.097-0.327,0.167-0.509,0.211
					c-0.181,0.045-0.385,0.067-0.61,0.067c-0.363,0-0.712-0.065-1.047-0.194s-0.629-0.328-0.884-0.599
					c-0.254-0.271-0.457-0.617-0.61-1.041c-0.153-0.423-0.23-0.934-0.23-1.53c0-0.097,0.004-0.244,0.013-0.441
					c0.008-0.198,0.036-0.418,0.084-0.659c0.049-0.242,0.128-0.49,0.236-0.745c0.109-0.254,0.262-0.487,0.46-0.701
					c0.197-0.214,0.447-0.388,0.75-0.521s0.676-0.199,1.119-0.199c0.509,0,0.942,0.093,1.301,0.278
					c0.359,0.186,0.636,0.455,0.829,0.811h0.036v-0.848h0.992v5.99c0,0.395-0.055,0.729-0.163,1.004
					c-0.109,0.274-0.248,0.504-0.418,0.689c-0.169,0.186-0.36,0.331-0.574,0.436c-0.214,0.105-0.422,0.186-0.623,0.242
					c-0.202,0.057-0.392,0.091-0.569,0.104c-0.177,0.012-0.314,0.018-0.411,0.018c-0.146,0-0.347-0.008-0.604-0.023
					c-0.259-0.017-0.522-0.075-0.793-0.176s-0.521-0.262-0.75-0.482c-0.23-0.222-0.394-0.541-0.49-0.96H580.064z M581.638,264.251
					c0.097,0,0.245-0.025,0.447-0.078c0.201-0.053,0.403-0.17,0.605-0.352c0.201-0.181,0.379-0.445,0.532-0.792
					s0.229-0.818,0.229-1.416c0-0.774-0.161-1.383-0.483-1.827c-0.323-0.443-0.799-0.665-1.429-0.665
					c-0.298,0-0.55,0.051-0.756,0.151s-0.375,0.228-0.508,0.381c-0.134,0.153-0.234,0.327-0.303,0.521s-0.121,0.381-0.157,0.562
					s-0.057,0.351-0.061,0.508s-0.006,0.276-0.006,0.357c0,0.621,0.074,1.109,0.224,1.464c0.149,0.355,0.326,0.619,0.532,0.793
					c0.206,0.173,0.415,0.282,0.629,0.326C581.349,264.23,581.517,264.251,581.638,264.251z"/>
				<path fill="#585A5E" d="M591.633,262.981c-0.041,0.218-0.115,0.446-0.224,0.684c-0.109,0.238-0.267,0.456-0.473,0.654
					c-0.205,0.197-0.47,0.36-0.792,0.489c-0.323,0.129-0.723,0.194-1.198,0.194c-0.508,0-0.938-0.069-1.288-0.206
					c-0.352-0.137-0.642-0.312-0.872-0.526c-0.229-0.214-0.409-0.449-0.538-0.708c-0.129-0.258-0.224-0.508-0.284-0.75
					s-0.097-0.462-0.109-0.659c-0.012-0.198-0.018-0.346-0.018-0.442c0-0.137,0.008-0.316,0.024-0.538
					c0.016-0.222,0.056-0.456,0.12-0.702s0.162-0.494,0.291-0.744s0.305-0.476,0.526-0.678c0.222-0.201,0.498-0.364,0.829-0.489
					c0.33-0.125,0.733-0.188,1.21-0.188c0.612,0,1.103,0.106,1.47,0.32s0.649,0.482,0.847,0.805
					c0.198,0.322,0.331,0.676,0.399,1.059c0.068,0.384,0.111,0.74,0.127,1.071c0,0.048,0.002,0.099,0.007,0.151
					c0.004,0.052,0.006,0.103,0.006,0.15h-4.731c0,0.267,0.036,0.537,0.109,0.812c0.072,0.273,0.186,0.521,0.339,0.744
					c0.152,0.222,0.353,0.405,0.599,0.55c0.246,0.146,0.546,0.218,0.901,0.218c0.25,0,0.476-0.034,0.678-0.103
					c0.201-0.068,0.373-0.161,0.514-0.278c0.142-0.117,0.255-0.252,0.339-0.405c0.085-0.153,0.144-0.314,0.176-0.484H591.633z
					 M590.567,261.178c-0.008-0.201-0.036-0.423-0.084-0.665c-0.049-0.242-0.136-0.466-0.261-0.672s-0.296-0.377-0.514-0.515
					c-0.218-0.137-0.501-0.205-0.848-0.205c-0.387,0-0.706,0.07-0.955,0.212c-0.251,0.141-0.446,0.316-0.587,0.526
					c-0.142,0.21-0.236,0.434-0.285,0.671c-0.048,0.238-0.072,0.454-0.072,0.647H590.567z"/>
				<path fill="#585A5E" d="M596.521,259.122c-0.363,0.016-0.684,0.064-0.962,0.146c-0.278,0.08-0.517,0.205-0.714,0.375
					c-0.198,0.169-0.355,0.387-0.472,0.653c-0.117,0.266-0.188,0.593-0.212,0.979c-0.008,0.113-0.013,0.223-0.013,0.327
					s0,0.214,0,0.326v2.832h-1.064v-6.147h1.064v1.187h0.024c0.073-0.226,0.18-0.426,0.321-0.6c0.141-0.173,0.302-0.318,0.483-0.436
					c0.182-0.116,0.377-0.207,0.587-0.271s0.424-0.102,0.642-0.109l0.314-0.012V259.122z"/>
				<path fill="#585A5E" d="M597.67,266.987c0.357-0.687,0.637-1.312,0.836-1.876s0.348-1.07,0.445-1.519
					c0.098-0.447,0.156-0.835,0.177-1.161c0.021-0.327,0.03-0.591,0.03-0.793c0-0.178-0.01-0.426-0.03-0.744
					s-0.079-0.706-0.177-1.161c-0.098-0.456-0.246-0.973-0.445-1.549c-0.199-0.577-0.479-1.208-0.836-1.895h0.799
					c0.395,0.63,0.708,1.206,0.938,1.73s0.405,1.005,0.526,1.44s0.199,0.833,0.236,1.191c0.036,0.359,0.054,0.688,0.054,0.986
					c0,0.299-0.018,0.627-0.054,0.986c-0.037,0.358-0.115,0.758-0.236,1.197c-0.121,0.44-0.297,0.92-0.526,1.44
					s-0.543,1.095-0.938,1.725H597.67z"/>
			</g>
		</g>
	</g>
	<g>
		<g>
			<g>
				<g>
					<path fill="#585A5E" d="M114.803,271.508c-0.699-0.779-1.049-1.784-1.049-3.017c0-1.231,0.35-2.237,1.049-3.016
						c0.7-0.779,1.578-1.168,2.634-1.168c0.897,0,1.632,0.239,2.204,0.719c0.572,0.479,0.938,1.134,1.096,1.96h-1.346
						c-0.353-0.959-1.003-1.438-1.954-1.438c-0.705,0-1.263,0.275-1.677,0.825s-0.62,1.256-0.62,2.118
						c0,0.863,0.207,1.569,0.62,2.119s0.972,0.825,1.677,0.825c0.95,0,1.601-0.484,1.954-1.452h1.346
						c-0.158,0.836-0.524,1.493-1.096,1.974c-0.572,0.479-1.307,0.719-2.204,0.719C116.381,272.676,115.503,272.287,114.803,271.508
						z"/>
					<path fill="#585A5E" d="M123.311,263.964v8.58h-1.32v-8.58H123.311z"/>
					<path fill="#585A5E" d="M126.182,264.347c0.163,0.158,0.244,0.348,0.244,0.567c0,0.221-0.082,0.409-0.244,0.568
						c-0.163,0.158-0.354,0.237-0.574,0.237c-0.22,0-0.412-0.079-0.574-0.237c-0.163-0.159-0.244-0.348-0.244-0.568
						c0-0.22,0.081-0.409,0.244-0.567c0.163-0.158,0.354-0.237,0.574-0.237C125.827,264.11,126.019,264.189,126.182,264.347z
						 M126.267,266.684v5.86h-1.32v-5.86H126.267z"/>
					<path fill="#585A5E" d="M131.521,270.723h1.214c-0.105,0.599-0.372,1.073-0.798,1.425c-0.427,0.353-0.983,0.528-1.67,0.528
						c-0.818,0-1.485-0.281-2-0.845c-0.515-0.562-0.772-1.298-0.772-2.204c0-0.88,0.259-1.612,0.779-2.198
						c0.519-0.585,1.175-0.878,1.967-0.878c0.81,0,1.437,0.263,1.881,0.786s0.667,1.226,0.667,2.105v0.475h-4
						c0.018,0.511,0.161,0.913,0.429,1.208c0.268,0.295,0.618,0.442,1.049,0.442C130.962,271.568,131.38,271.286,131.521,270.723z
						 M130.254,267.661c-0.37,0-0.68,0.112-0.931,0.336c-0.25,0.225-0.416,0.544-0.495,0.957h2.653
						c-0.009-0.378-0.119-0.688-0.33-0.931C130.94,267.782,130.641,267.661,130.254,267.661z"/>
					<path fill="#585A5E" d="M134.002,272.544v-5.86h1.32v0.554c0.396-0.457,0.924-0.687,1.584-0.687
						c0.651,0,1.16,0.198,1.525,0.595c0.365,0.396,0.548,0.924,0.548,1.584v3.814h-1.32v-3.591c0-0.378-0.092-0.673-0.277-0.884
						c-0.185-0.211-0.462-0.317-0.832-0.317c-0.291,0-0.55,0.086-0.779,0.258c-0.229,0.172-0.379,0.398-0.449,0.68v3.854H134.002z"
						/>
					<path fill="#585A5E" d="M140.84,270.96v-3.182h-0.924v-1.095h0.924v-1.571h1.32v1.571h1.32v1.095h-1.32v3.036
						c0,0.458,0.233,0.687,0.7,0.687c0.282,0,0.532-0.079,0.752-0.237v1.201c-0.238,0.141-0.568,0.211-0.99,0.211
						c-0.545,0-0.979-0.146-1.3-0.436C141,271.951,140.84,271.524,140.84,270.96z"/>
				</g>
			</g>
			<g id="hVCAm4_19_">
				<g>
					<path fill-rule="evenodd" clip-rule="evenodd" fill="#585A5E" d="M106.278,245.638c0.151-0.213,0.444-0.431,0.436-0.639
						c-0.249-5.545,2.992-7.986,7.875-9.255c1.987-0.516,3.899-1.515,5.688-2.562c4.67-2.735,5.23-4.908,2.691-9.551
						c-2.777-5.078-2.292-10.46-1.207-15.787c0.247-1.214,1.589-2.46,2.744-3.185c3.265-2.043,9.669-1.34,12.621,1.114
						c2.58,2.146,2.085,5.188,2.549,8.024c0.732,4.472-0.407,8.446-2.451,12.293c-1.133,2.133-0.485,3.904,1.199,5.307
						c1.24,1.032,2.629,1.927,4.06,2.672c1.442,0.752,2.973,1.444,4.547,1.814c4.621,1.084,7.543,3.56,7.78,8.584
						c0.029,0.582,0.438,1.146,0.672,1.719c0,0.363,0,0.729,0,1.092c-13.1,12.721-33.544,14.994-49.203,0
						C106.278,246.733,106.278,246.187,106.278,245.638z"/>
				</g>
			</g>
		</g>
		<path fill="none" stroke="#585A5E" stroke-width="1.363" stroke-miterlimit="10" d="M164.555,223.607
			c0,9.077-3.535,17.328-9.304,23.452c-6.238,6.62-15.087,10.755-24.902,10.755c-9.445,0-17.997-3.83-24.187-10.02
			c-6.19-6.189-10.02-14.741-10.02-24.188c0-18.892,15.314-34.206,34.206-34.206C149.242,189.401,164.555,204.715,164.555,223.607z"
			/>
	</g>
	<g>
		<g>
			<rect x="192.705" y="51.76" fill="#DCDCDD" width="279.342" height="86.493"/>
			<rect x="192.705" y="51.76" fill="#585A5E" width="279.342" height="34.1"/>
		</g>
		<g>
			<g>
				<rect x="205.371" y="97.768" fill="#FFFFFF" width="83.299" height="28.795"/>
				<g>
					<g>
						<g>
							<path fill="#585A5E" d="M239.749,114.674h-1.609v2.771h-1.258v-7.429h2.867c0.782,0,1.401,0.202,1.857,0.605
								s0.684,0.98,0.684,1.73c0,0.742-0.228,1.315-0.684,1.718S240.531,114.674,239.749,114.674z M241.044,112.351
								c0-0.379-0.113-0.682-0.339-0.907c-0.226-0.226-0.553-0.339-0.98-0.339h-1.585v2.48h1.585c0.42,0,0.744-0.113,0.975-0.339
								C240.929,113.021,241.044,112.722,241.044,112.351z"/>
							<path fill="#585A5E" d="M244.535,109.931c0.148,0.145,0.224,0.319,0.224,0.521s-0.075,0.375-0.224,0.52
								c-0.149,0.146-0.325,0.218-0.526,0.218c-0.202,0-0.378-0.072-0.526-0.218c-0.149-0.145-0.224-0.318-0.224-0.52
								s0.074-0.375,0.224-0.521c0.148-0.145,0.324-0.218,0.526-0.218C244.21,109.713,244.386,109.786,244.535,109.931z
								 M244.613,112.072v5.373h-1.21v-5.373H244.613z"/>
							<path fill="#585A5E" d="M247.323,109.58v7.865h-1.21v-7.865H247.323z"/>
							<path fill="#585A5E" d="M252.848,112.738c0.472,0.524,0.708,1.198,0.708,2.021s-0.236,1.496-0.708,2.021
								c-0.472,0.524-1.087,0.786-1.846,0.786c-0.758,0-1.373-0.262-1.845-0.786c-0.472-0.525-0.708-1.198-0.708-2.021
								s0.236-1.497,0.708-2.021c0.472-0.524,1.087-0.786,1.845-0.786C251.761,111.952,252.376,112.214,252.848,112.738z
								 M251.994,116.035c0.234-0.327,0.352-0.752,0.352-1.276s-0.117-0.95-0.352-1.277c-0.233-0.327-0.564-0.49-0.992-0.49
								c-0.427,0-0.758,0.163-0.992,0.49c-0.233,0.327-0.351,0.752-0.351,1.277s0.117,0.95,0.351,1.276
								c0.234,0.327,0.565,0.49,0.992,0.49C251.43,116.525,251.761,116.362,251.994,116.035z"/>
							<path fill="#585A5E" d="M254.958,115.993v-2.916h-0.847v-1.004h0.847v-1.44h1.21v1.44h1.21v1.004h-1.21v2.783
								c0,0.42,0.214,0.629,0.642,0.629c0.258,0,0.488-0.072,0.689-0.218v1.102c-0.218,0.129-0.521,0.193-0.907,0.193
								c-0.5,0-0.897-0.133-1.192-0.399C255.105,116.9,254.958,116.509,254.958,115.993z"/>
						</g>
					</g>
				</g>
			</g>
			<g>
				<rect x="290.727" y="97.768" fill="#FFFFFF" width="83.299" height="28.795"/>
				<g>
					<g>
						<g>
							<path fill="#585A5E" d="M323.822,117.445h-0.896l-2.045-5.167v5.167h-1.197v-7.429h1.439l2.263,5.711l2.238-5.711h1.404
								v7.429h-1.211v-5.167L323.822,117.445z"/>
							<path fill="#585A5E" d="M329.733,109.931c0.148,0.145,0.224,0.319,0.224,0.521s-0.075,0.375-0.224,0.52
								c-0.149,0.146-0.325,0.218-0.526,0.218c-0.202,0-0.378-0.072-0.526-0.218c-0.149-0.145-0.224-0.318-0.224-0.52
								s0.074-0.375,0.224-0.521c0.148-0.145,0.324-0.218,0.526-0.218C329.408,109.713,329.584,109.786,329.733,109.931z
								 M329.812,112.072v5.373h-1.21v-5.373H329.812z"/>
							<path fill="#585A5E" d="M335.897,112.072l-1.863,2.565l2.009,2.807h-1.367l-1.331-1.9l-1.344,1.9h-1.294l1.996-2.759
								l-1.852-2.614h1.367l1.174,1.694l1.21-1.694H335.897z"/>
							<path fill="#585A5E" d="M340.254,115.775h1.113c-0.097,0.549-0.341,0.984-0.732,1.307c-0.391,0.323-0.901,0.484-1.53,0.484
								c-0.75,0-1.361-0.258-1.833-0.774c-0.472-0.516-0.708-1.19-0.708-2.021c0-0.806,0.238-1.478,0.714-2.015
								c0.476-0.536,1.077-0.804,1.803-0.804c0.742,0,1.317,0.24,1.725,0.72s0.611,1.124,0.611,1.93v0.436h-3.667
								c0.017,0.468,0.147,0.837,0.394,1.107c0.246,0.271,0.566,0.405,0.962,0.405C339.742,116.549,340.125,116.292,340.254,115.775
								z M339.093,112.968c-0.339,0-0.623,0.103-0.854,0.309c-0.229,0.206-0.381,0.498-0.453,0.877h2.432
								c-0.008-0.347-0.109-0.631-0.303-0.853C339.722,113.079,339.447,112.968,339.093,112.968z"/>
							<path fill="#585A5E" d="M345.529,112.048v1.246c-0.169-0.121-0.407-0.182-0.714-0.182c-0.258,0-0.488,0.075-0.689,0.224
								c-0.202,0.149-0.331,0.361-0.388,0.635v3.473h-1.21v-5.373h1.21v0.557c0.104-0.202,0.267-0.365,0.484-0.49
								s0.455-0.188,0.714-0.188C345.219,111.952,345.416,111.984,345.529,112.048z"/>
						</g>
					</g>
				</g>
			</g>
			<g>
				<rect x="376.082" y="97.768" fill="#FFFFFF" width="83.299" height="28.795"/>
				<g>
					<g>
						<g>
							<path fill="#585A5E" d="M396.443,110.016v7.429h-1.258v-7.429H396.443z"/>
							<path fill="#585A5E" d="M397.642,115.896h1.234c0.137,0.452,0.492,0.678,1.064,0.678c0.282,0,0.507-0.055,0.672-0.163
								c0.165-0.109,0.248-0.269,0.248-0.479c0-0.145-0.049-0.26-0.146-0.345c-0.097-0.084-0.258-0.155-0.483-0.212l-1.113-0.266
								c-0.888-0.209-1.331-0.702-1.331-1.476c0-0.484,0.191-0.885,0.574-1.204c0.384-0.318,0.869-0.478,1.458-0.478
								c0.613,0,1.102,0.139,1.465,0.417c0.362,0.278,0.593,0.668,0.689,1.168h-1.186c-0.121-0.395-0.448-0.593-0.98-0.593
								c-0.234,0-0.436,0.052-0.605,0.157c-0.169,0.105-0.254,0.258-0.254,0.459c0,0.234,0.186,0.399,0.557,0.496l1.138,0.267
								c0.92,0.218,1.379,0.726,1.379,1.524c0,0.524-0.195,0.942-0.587,1.252c-0.391,0.311-0.893,0.466-1.506,0.466
								c-0.629,0-1.147-0.149-1.555-0.448C397.967,116.82,397.723,116.413,397.642,115.896z"/>
							<path fill="#585A5E" d="M403.485,115.993v-2.916h-0.847v-1.004h0.847v-1.44h1.21v1.44h1.21v1.004h-1.21v2.783
								c0,0.42,0.214,0.629,0.642,0.629c0.258,0,0.488-0.072,0.689-0.218v1.102c-0.218,0.129-0.521,0.193-0.907,0.193
								c-0.5,0-0.897-0.133-1.192-0.399C403.633,116.9,403.485,116.509,403.485,115.993z"/>
							<path fill="#585A5E" d="M408.393,109.931c0.148,0.145,0.224,0.319,0.224,0.521s-0.075,0.375-0.224,0.52
								c-0.149,0.146-0.325,0.218-0.526,0.218c-0.202,0-0.378-0.072-0.526-0.218c-0.149-0.145-0.224-0.318-0.224-0.52
								s0.074-0.375,0.224-0.521c0.148-0.145,0.324-0.218,0.526-0.218C408.067,109.713,408.243,109.786,408.393,109.931z
								 M408.471,112.072v5.373h-1.21v-5.373H408.471z"/>
							<path fill="#585A5E" d="M413.994,112.738c0.472,0.524,0.708,1.198,0.708,2.021s-0.236,1.496-0.708,2.021
								c-0.472,0.524-1.087,0.786-1.846,0.786c-0.758,0-1.373-0.262-1.845-0.786c-0.472-0.525-0.708-1.198-0.708-2.021
								s0.236-1.497,0.708-2.021c0.472-0.524,1.087-0.786,1.845-0.786C412.907,111.952,413.522,112.214,413.994,112.738z
								 M413.141,116.035c0.234-0.327,0.352-0.752,0.352-1.276s-0.117-0.95-0.352-1.277c-0.233-0.327-0.564-0.49-0.992-0.49
								c-0.427,0-0.758,0.163-0.992,0.49c-0.233,0.327-0.351,0.752-0.351,1.277s0.117,0.95,0.351,1.276
								c0.234,0.327,0.565,0.49,0.992,0.49C412.576,116.525,412.907,116.362,413.141,116.035z"/>
							<path fill="#585A5E" d="M420.849,110.016h1.21l2.855,7.429h-1.282l-0.763-2.057h-2.844l-0.762,2.057h-1.271L420.849,110.016z
								 M421.441,111.552l-1.017,2.747h2.033L421.441,111.552z"/>
							<path fill="#585A5E" d="M430.311,112.072v5.373h-1.21v-0.508c-0.362,0.419-0.843,0.629-1.439,0.629
								c-0.598,0-1.062-0.182-1.392-0.545c-0.331-0.362-0.496-0.847-0.496-1.452v-3.497h1.21v3.292c0,0.734,0.335,1.101,1.004,1.101
								c0.267,0,0.503-0.078,0.708-0.235c0.206-0.158,0.341-0.365,0.405-0.624v-3.533H430.311z"/>
							<path fill="#585A5E" d="M432.09,115.993v-2.916h-0.847v-1.004h0.847v-1.44h1.21v1.44h1.21v1.004h-1.21v2.783
								c0,0.42,0.214,0.629,0.642,0.629c0.258,0,0.488-0.072,0.689-0.218v1.102c-0.218,0.129-0.521,0.193-0.907,0.193
								c-0.5,0-0.897-0.133-1.192-0.399C432.237,116.9,432.09,116.509,432.09,115.993z"/>
							<path fill="#585A5E" d="M435.864,117.445v-7.865h1.21v3.001c0.363-0.419,0.848-0.629,1.452-0.629
								c0.597,0,1.062,0.181,1.397,0.544c0.335,0.363,0.502,0.847,0.502,1.452v3.497h-1.21v-3.291c0-0.347-0.084-0.617-0.254-0.811
								c-0.169-0.193-0.424-0.29-0.762-0.29c-0.267,0-0.505,0.079-0.714,0.236c-0.21,0.157-0.348,0.365-0.412,0.623v3.533H435.864z"
								/>
						</g>
					</g>
				</g>
			</g>
		</g>
		<g>
			<g>
				<g>
					<g>
						<path fill="#FFFFFF" d="M284.643,64.768v8.47h-1.138v-8.47H284.643z"/>
						<path fill="#FFFFFF" d="M287.171,71.411c0.009,0.242,0.061,0.448,0.156,0.617s0.222,0.307,0.378,0.411
							c0.156,0.105,0.332,0.18,0.528,0.224s0.395,0.066,0.595,0.066c0.352,0,0.624-0.048,0.816-0.145s0.332-0.21,0.42-0.339
							s0.138-0.258,0.15-0.387c0.012-0.129,0.018-0.226,0.018-0.291c0-0.097-0.01-0.191-0.03-0.284
							c-0.02-0.093-0.074-0.182-0.162-0.266c-0.088-0.085-0.219-0.166-0.391-0.242c-0.173-0.077-0.407-0.151-0.703-0.224
							l-0.649-0.146c-0.257-0.056-0.501-0.121-0.733-0.193c-0.233-0.073-0.438-0.173-0.613-0.303
							c-0.177-0.129-0.317-0.296-0.421-0.502c-0.104-0.206-0.156-0.47-0.156-0.792c0-0.339,0.068-0.623,0.205-0.853
							c0.138-0.23,0.318-0.412,0.545-0.544c0.226-0.133,0.476-0.228,0.75-0.285c0.274-0.056,0.553-0.084,0.835-0.084
							c0.524,0,0.945,0.064,1.265,0.193c0.318,0.129,0.566,0.289,0.744,0.478c0.177,0.189,0.298,0.392,0.363,0.605
							c0.064,0.214,0.104,0.405,0.12,0.575h-1.016c-0.009-0.088-0.031-0.195-0.067-0.32s-0.105-0.246-0.207-0.363
							c-0.101-0.117-0.244-0.216-0.431-0.296s-0.434-0.121-0.741-0.121c-0.033,0-0.118,0.004-0.256,0.012
							c-0.138,0.008-0.281,0.042-0.432,0.103c-0.149,0.06-0.285,0.157-0.407,0.29c-0.121,0.133-0.182,0.321-0.182,0.563
							c0,0.218,0.046,0.391,0.14,0.52c0.093,0.129,0.218,0.23,0.376,0.303c0.157,0.072,0.34,0.131,0.546,0.175
							c0.207,0.044,0.419,0.091,0.638,0.139c0.315,0.073,0.606,0.147,0.874,0.224c0.267,0.077,0.499,0.178,0.697,0.303
							s0.353,0.289,0.462,0.49s0.163,0.459,0.163,0.774c0,0.323-0.056,0.595-0.169,0.816c-0.113,0.222-0.254,0.408-0.424,0.557
							c-0.169,0.149-0.356,0.264-0.562,0.345c-0.205,0.081-0.403,0.141-0.593,0.182s-0.355,0.064-0.496,0.073
							c-0.142,0.008-0.236,0.012-0.284,0.012c-0.46,0-0.857-0.055-1.192-0.164c-0.334-0.109-0.615-0.258-0.841-0.448
							c-0.226-0.189-0.396-0.409-0.508-0.659c-0.113-0.25-0.174-0.516-0.182-0.799H287.171z"/>
						<path fill="#FFFFFF" d="M293.052,67.091v-1.839h1.064v1.839h1.307v0.75h-1.307v3.908c0,0.113,0.002,0.22,0.006,0.321
							c0.004,0.101,0.024,0.191,0.061,0.272c0.036,0.081,0.099,0.144,0.188,0.188c0.089,0.044,0.218,0.067,0.388,0.067
							c0.112,0,0.226-0.01,0.339-0.03c0.112-0.02,0.222-0.046,0.326-0.079v0.75c-0.169,0.073-0.351,0.131-0.544,0.175
							c-0.194,0.044-0.384,0.067-0.569,0.067c-0.314,0-0.559-0.049-0.731-0.146c-0.174-0.097-0.299-0.22-0.376-0.369
							c-0.076-0.149-0.12-0.312-0.133-0.49c-0.012-0.177-0.018-0.347-0.018-0.508v-4.126h-1.102v-0.75H293.052z"/>
						<path fill="#FFFFFF" d="M296.512,64.768h1.065v1.113h-1.065V64.768z M297.577,67.091v6.147h-1.065v-6.147H297.577z"/>
						<path fill="#FFFFFF" d="M298.944,70.165c0-0.412,0.052-0.815,0.157-1.21c0.104-0.396,0.276-0.749,0.514-1.059
							c0.238-0.311,0.551-0.562,0.938-0.756c0.387-0.193,0.858-0.29,1.415-0.29s1.029,0.097,1.416,0.29
							c0.388,0.194,0.7,0.446,0.938,0.756c0.238,0.311,0.409,0.664,0.515,1.059c0.104,0.395,0.157,0.798,0.157,1.21
							c0,0.411-0.053,0.815-0.157,1.21c-0.105,0.395-0.276,0.748-0.515,1.059c-0.237,0.311-0.55,0.562-0.938,0.756
							c-0.387,0.193-0.859,0.291-1.416,0.291s-1.028-0.097-1.415-0.291c-0.388-0.194-0.7-0.446-0.938-0.756
							c-0.237-0.311-0.409-0.664-0.514-1.059C298.996,70.979,298.944,70.576,298.944,70.165z M300.069,70.165
							c0,0.61,0.077,1.088,0.23,1.433c0.152,0.345,0.334,0.602,0.544,0.771c0.21,0.169,0.419,0.271,0.629,0.307
							c0.21,0.036,0.375,0.054,0.496,0.054s0.286-0.018,0.496-0.054c0.21-0.036,0.42-0.138,0.63-0.307
							c0.209-0.168,0.391-0.425,0.544-0.771s0.23-0.823,0.23-1.433s-0.077-1.088-0.23-1.433s-0.335-0.603-0.544-0.771
							c-0.21-0.168-0.42-0.271-0.63-0.307s-0.375-0.054-0.496-0.054s-0.286,0.018-0.496,0.054s-0.419,0.139-0.629,0.307
							s-0.392,0.426-0.544,0.771C300.146,69.077,300.069,69.554,300.069,70.165z"/>
						<path fill="#FFFFFF" d="M316.489,70.431c-0.04,0.307-0.121,0.637-0.242,0.992s-0.316,0.686-0.587,0.992
							c-0.27,0.307-0.627,0.562-1.07,0.768c-0.444,0.206-1.005,0.309-1.682,0.309c-0.63,0-1.194-0.099-1.694-0.296
							c-0.5-0.197-0.922-0.484-1.265-0.859s-0.607-0.831-0.792-1.367c-0.187-0.537-0.278-1.144-0.278-1.821
							c0-0.75,0.082-1.385,0.248-1.906c0.165-0.52,0.375-0.952,0.629-1.294s0.538-0.611,0.853-0.805
							c0.315-0.194,0.619-0.337,0.914-0.43c0.294-0.093,0.562-0.149,0.805-0.169s0.423-0.03,0.544-0.03
							c0.678,0,1.234,0.089,1.67,0.266c0.436,0.178,0.785,0.405,1.047,0.684s0.452,0.587,0.568,0.926
							c0.117,0.339,0.192,0.67,0.225,0.992h-1.138c-0.017-0.153-0.059-0.339-0.127-0.557s-0.188-0.427-0.357-0.629
							c-0.169-0.202-0.405-0.373-0.708-0.515c-0.302-0.141-0.695-0.211-1.18-0.211c-0.532,0-0.976,0.103-1.331,0.309
							c-0.354,0.206-0.639,0.478-0.853,0.816s-0.367,0.726-0.46,1.162s-0.139,0.883-0.139,1.343c0,0.492,0.064,0.948,0.193,1.367
							s0.318,0.783,0.568,1.089c0.25,0.307,0.551,0.547,0.901,0.72c0.352,0.173,0.752,0.26,1.204,0.26
							c0.339,0,0.651-0.053,0.938-0.157c0.286-0.105,0.535-0.252,0.744-0.442c0.21-0.189,0.377-0.411,0.503-0.666
							c0.125-0.254,0.195-0.534,0.211-0.841H316.489z"/>
						<path fill="#FFFFFF" d="M317.47,70.165c0-0.412,0.052-0.815,0.157-1.21c0.104-0.396,0.276-0.749,0.514-1.059
							c0.238-0.311,0.551-0.562,0.938-0.756c0.387-0.193,0.858-0.29,1.415-0.29s1.029,0.097,1.416,0.29
							c0.388,0.194,0.7,0.446,0.938,0.756c0.238,0.311,0.409,0.664,0.515,1.059c0.104,0.395,0.157,0.798,0.157,1.21
							c0,0.411-0.053,0.815-0.157,1.21c-0.105,0.395-0.276,0.748-0.515,1.059c-0.237,0.311-0.55,0.562-0.938,0.756
							c-0.387,0.193-0.859,0.291-1.416,0.291s-1.028-0.097-1.415-0.291c-0.388-0.194-0.7-0.446-0.938-0.756
							c-0.237-0.311-0.409-0.664-0.514-1.059C317.521,70.979,317.47,70.576,317.47,70.165z M318.595,70.165
							c0,0.61,0.077,1.088,0.23,1.433c0.152,0.345,0.334,0.602,0.544,0.771c0.21,0.169,0.419,0.271,0.629,0.307
							c0.21,0.036,0.375,0.054,0.496,0.054s0.286-0.018,0.496-0.054c0.21-0.036,0.42-0.138,0.63-0.307
							c0.209-0.168,0.391-0.425,0.544-0.771s0.23-0.823,0.23-1.433s-0.077-1.088-0.23-1.433s-0.335-0.603-0.544-0.771
							c-0.21-0.168-0.42-0.271-0.63-0.307s-0.375-0.054-0.496-0.054s-0.286,0.018-0.496,0.054s-0.419,0.139-0.629,0.307
							s-0.392,0.426-0.544,0.771C318.672,69.077,318.595,69.554,318.595,70.165z"/>
						<path fill="#FFFFFF" d="M325.975,67.091v0.859c0.21-0.307,0.492-0.567,0.848-0.781c0.354-0.213,0.774-0.32,1.258-0.32
							c0.403,0,0.736,0.062,0.999,0.188c0.262,0.125,0.468,0.292,0.617,0.502c0.148,0.21,0.254,0.454,0.314,0.732
							c0.061,0.278,0.091,0.571,0.091,0.877v4.09h-1.065v-3.763c0-0.161-0.006-0.351-0.018-0.569
							c-0.013-0.218-0.057-0.423-0.134-0.617c-0.076-0.194-0.203-0.357-0.381-0.49s-0.432-0.2-0.763-0.2
							c-0.145,0-0.318,0.024-0.52,0.073c-0.202,0.048-0.396,0.151-0.581,0.309s-0.343,0.387-0.472,0.689
							c-0.13,0.303-0.194,0.708-0.194,1.216v3.352h-1.064v-6.147H325.975z"/>
						<path fill="#FFFFFF" d="M332.231,67.091v-1.839h1.064v1.839h1.307v0.75h-1.307v3.908c0,0.113,0.002,0.22,0.006,0.321
							c0.004,0.101,0.024,0.191,0.061,0.272c0.036,0.081,0.099,0.144,0.188,0.188c0.089,0.044,0.218,0.067,0.388,0.067
							c0.112,0,0.226-0.01,0.339-0.03c0.112-0.02,0.222-0.046,0.326-0.079v0.75c-0.169,0.073-0.351,0.131-0.544,0.175
							c-0.194,0.044-0.384,0.067-0.569,0.067c-0.314,0-0.559-0.049-0.731-0.146c-0.174-0.097-0.299-0.22-0.376-0.369
							c-0.076-0.149-0.12-0.312-0.133-0.49c-0.012-0.177-0.018-0.347-0.018-0.508v-4.126h-1.102v-0.75H332.231z"/>
						<path fill="#FFFFFF" d="M339.152,67.599c-0.363,0.016-0.684,0.065-0.962,0.146s-0.517,0.206-0.714,0.375
							c-0.198,0.169-0.355,0.387-0.472,0.653c-0.117,0.266-0.188,0.593-0.212,0.98c-0.008,0.113-0.013,0.222-0.013,0.327
							c0,0.105,0,0.214,0,0.327v2.832h-1.064v-6.147h1.064v1.186h0.024c0.073-0.226,0.18-0.425,0.321-0.599
							c0.141-0.173,0.302-0.318,0.483-0.436c0.182-0.117,0.377-0.208,0.587-0.272s0.424-0.101,0.642-0.109l0.314-0.012V67.599z"/>
						<path fill="#FFFFFF" d="M339.527,70.165c0-0.412,0.052-0.815,0.157-1.21c0.104-0.396,0.276-0.749,0.514-1.059
							c0.238-0.311,0.551-0.562,0.938-0.756c0.387-0.193,0.858-0.29,1.415-0.29s1.029,0.097,1.416,0.29
							c0.388,0.194,0.7,0.446,0.938,0.756c0.238,0.311,0.409,0.664,0.515,1.059c0.104,0.395,0.157,0.798,0.157,1.21
							c0,0.411-0.053,0.815-0.157,1.21c-0.105,0.395-0.276,0.748-0.515,1.059c-0.237,0.311-0.55,0.562-0.938,0.756
							c-0.387,0.193-0.859,0.291-1.416,0.291s-1.028-0.097-1.415-0.291c-0.388-0.194-0.7-0.446-0.938-0.756
							c-0.237-0.311-0.409-0.664-0.514-1.059C339.579,70.979,339.527,70.576,339.527,70.165z M340.652,70.165
							c0,0.61,0.077,1.088,0.23,1.433c0.152,0.345,0.334,0.602,0.544,0.771c0.21,0.169,0.419,0.271,0.629,0.307
							c0.21,0.036,0.375,0.054,0.496,0.054s0.286-0.018,0.496-0.054c0.21-0.036,0.42-0.138,0.63-0.307
							c0.209-0.168,0.391-0.425,0.544-0.771s0.23-0.823,0.23-1.433s-0.077-1.088-0.23-1.433s-0.335-0.603-0.544-0.771
							c-0.21-0.168-0.42-0.271-0.63-0.307s-0.375-0.054-0.496-0.054s-0.286,0.018-0.496,0.054s-0.419,0.139-0.629,0.307
							s-0.392,0.426-0.544,0.771C340.729,69.077,340.652,69.554,340.652,70.165z"/>
						<path fill="#FFFFFF" d="M348.033,64.768v8.47h-1.064v-8.47H348.033z"/>
						<path fill="#FFFFFF" d="M356.188,64.768c0.434,0,0.825,0.044,1.175,0.133s0.649,0.23,0.898,0.423
							c0.249,0.194,0.441,0.446,0.578,0.756s0.205,0.684,0.205,1.119c0,0.396-0.052,0.756-0.156,1.083s-0.273,0.607-0.506,0.841
							c-0.233,0.234-0.538,0.416-0.915,0.544c-0.378,0.129-0.84,0.193-1.386,0.193h-2.191v3.376h-1.138v-8.47H356.188z
							 M353.89,68.906h2.081c0.678,0,1.17-0.141,1.477-0.423c0.306-0.282,0.459-0.702,0.459-1.258c0-0.524-0.159-0.905-0.478-1.144
							c-0.318-0.238-0.805-0.357-1.458-0.357h-2.081V68.906z"/>
						<path fill="#FFFFFF" d="M359.612,68.906c0-0.201,0.035-0.423,0.104-0.665c0.068-0.242,0.197-0.466,0.387-0.672
							s0.456-0.377,0.799-0.514s0.784-0.206,1.325-0.206c0.25,0,0.518,0.024,0.805,0.072c0.286,0.049,0.552,0.146,0.799,0.291
							c0.245,0.146,0.449,0.353,0.61,0.623c0.161,0.271,0.238,0.631,0.23,1.083l-0.061,2.844c0,0.121,0.002,0.228,0.006,0.32
							c0.004,0.093,0.026,0.169,0.066,0.23s0.104,0.107,0.193,0.139s0.214,0.044,0.375,0.037v0.75
							c-0.072,0.016-0.143,0.028-0.211,0.036c-0.069,0.008-0.16,0.012-0.272,0.012c-0.146,0-0.28-0.01-0.405-0.03
							s-0.234-0.061-0.327-0.121s-0.169-0.149-0.229-0.266c-0.061-0.117-0.107-0.276-0.14-0.478
							c-0.104,0.194-0.233,0.359-0.387,0.496c-0.153,0.137-0.323,0.25-0.509,0.339c-0.186,0.089-0.381,0.153-0.587,0.194
							c-0.205,0.04-0.413,0.061-0.623,0.061c-0.646,0-1.167-0.147-1.566-0.442s-0.6-0.764-0.6-1.41c0-0.266,0.041-0.506,0.121-0.72
							c0.081-0.214,0.234-0.403,0.46-0.569c0.226-0.165,0.532-0.303,0.92-0.412c0.387-0.109,0.891-0.191,1.513-0.248
							c0.226-0.016,0.415-0.032,0.568-0.048c0.153-0.016,0.276-0.05,0.369-0.103c0.093-0.053,0.159-0.131,0.199-0.236
							c0.041-0.104,0.061-0.258,0.061-0.459c0-0.073-0.008-0.177-0.023-0.315c-0.017-0.137-0.069-0.274-0.158-0.411
							s-0.226-0.256-0.411-0.357c-0.186-0.101-0.447-0.151-0.786-0.151c-0.097,0-0.236,0.008-0.418,0.024s-0.36,0.066-0.538,0.151
							c-0.178,0.085-0.331,0.214-0.46,0.387c-0.129,0.174-0.189,0.422-0.182,0.744H359.612z M363.605,70.092
							c-0.08,0.064-0.164,0.111-0.252,0.139s-0.185,0.05-0.288,0.066c-0.104,0.017-0.222,0.03-0.354,0.042
							c-0.132,0.012-0.282,0.03-0.45,0.055c-0.231,0.04-0.454,0.079-0.666,0.115s-0.398,0.093-0.559,0.169s-0.286,0.188-0.378,0.333
							c-0.092,0.146-0.138,0.339-0.138,0.581c0,0.363,0.109,0.643,0.33,0.841c0.22,0.198,0.502,0.296,0.847,0.296
							c0.207,0,0.418-0.03,0.63-0.091s0.408-0.169,0.588-0.327c0.181-0.157,0.33-0.373,0.45-0.647
							c0.12-0.274,0.192-0.625,0.217-1.052L363.605,70.092z"/>
						<path fill="#FFFFFF" d="M367.574,67.091v0.859c0.21-0.307,0.492-0.567,0.848-0.781c0.354-0.213,0.774-0.32,1.258-0.32
							c0.403,0,0.736,0.062,0.999,0.188c0.262,0.125,0.468,0.292,0.617,0.502c0.148,0.21,0.254,0.454,0.314,0.732
							c0.061,0.278,0.091,0.571,0.091,0.877v4.09h-1.065v-3.763c0-0.161-0.006-0.351-0.018-0.569
							c-0.013-0.218-0.057-0.423-0.134-0.617c-0.076-0.194-0.203-0.357-0.381-0.49s-0.432-0.2-0.763-0.2
							c-0.145,0-0.318,0.024-0.52,0.073c-0.202,0.048-0.396,0.151-0.581,0.309s-0.343,0.387-0.472,0.689
							c-0.13,0.303-0.194,0.708-0.194,1.216v3.352h-1.064v-6.147H367.574z"/>
						<path fill="#FFFFFF" d="M378.889,71.459c-0.041,0.218-0.115,0.446-0.224,0.684c-0.109,0.238-0.267,0.456-0.473,0.654
							c-0.205,0.198-0.47,0.361-0.792,0.49c-0.323,0.129-0.723,0.194-1.198,0.194c-0.508,0-0.938-0.069-1.288-0.206
							c-0.352-0.137-0.642-0.312-0.872-0.526c-0.229-0.213-0.409-0.449-0.538-0.708s-0.224-0.508-0.284-0.75
							c-0.061-0.242-0.097-0.461-0.109-0.659c-0.012-0.198-0.018-0.345-0.018-0.442c0-0.137,0.008-0.316,0.024-0.539
							c0.016-0.222,0.056-0.456,0.12-0.702s0.162-0.494,0.291-0.744s0.305-0.476,0.526-0.678c0.222-0.201,0.498-0.365,0.829-0.49
							c0.33-0.125,0.733-0.188,1.21-0.188c0.612,0,1.103,0.107,1.47,0.32c0.367,0.214,0.649,0.482,0.847,0.805
							c0.198,0.323,0.331,0.676,0.399,1.059s0.111,0.74,0.127,1.071c0,0.048,0.002,0.099,0.007,0.151
							c0.004,0.052,0.006,0.103,0.006,0.151h-4.731c0,0.266,0.036,0.537,0.109,0.811c0.072,0.274,0.186,0.522,0.339,0.744
							c0.152,0.222,0.353,0.405,0.599,0.55c0.246,0.146,0.546,0.218,0.901,0.218c0.25,0,0.476-0.034,0.678-0.103
							c0.201-0.069,0.373-0.162,0.514-0.278c0.142-0.117,0.255-0.252,0.339-0.406c0.085-0.153,0.144-0.314,0.176-0.484H378.889z
							 M377.823,69.656c-0.008-0.202-0.036-0.423-0.084-0.666c-0.049-0.242-0.136-0.466-0.261-0.671
							c-0.125-0.206-0.296-0.377-0.514-0.515c-0.218-0.137-0.501-0.206-0.848-0.206c-0.387,0-0.706,0.071-0.955,0.212
							c-0.251,0.141-0.446,0.316-0.587,0.526c-0.142,0.21-0.236,0.434-0.285,0.671c-0.048,0.238-0.072,0.454-0.072,0.647H377.823z"
							/>
						<path fill="#FFFFFF" d="M381.404,64.768v8.47h-1.064v-8.47H381.404z"/>
					</g>
				</g>
			</g>
		</g>
	</g>
	
		<line fill="none" stroke="#585A5E" stroke-width="1.1" stroke-miterlimit="10" x1="164.555" y1="223.607" x2="272.507" y2="223.607"/>
	<g>
		<g>
			<g>
				
					<line fill="none" stroke="#585A5E" stroke-width="1.1" stroke-miterlimit="10" x1="391.507" y1="225.515" x2="392.471" y2="225.781"/>
				
					<line fill="none" stroke="#585A5E" stroke-width="1.1" stroke-miterlimit="10" stroke-dasharray="2.0388,2.0388" x1="394.437" y1="226.324" x2="487.794" y2="252.07"/>
				
					<line fill="none" stroke="#585A5E" stroke-width="1.1" stroke-miterlimit="10" x1="488.777" y1="252.341" x2="489.741" y2="252.607"/>
				<g>
					<polygon fill="#585A5E" points="488.208,255.086 493.622,253.677 489.695,249.693 					"/>
				</g>
			</g>
		</g>
	</g>
	<g>
		<g>
			<g>
				
					<line fill="none" stroke="#585A5E" stroke-width="1.1" stroke-miterlimit="10" x1="391.507" y1="223.662" x2="392.469" y2="223.387"/>
				
					<line fill="none" stroke="#585A5E" stroke-width="1.1" stroke-miterlimit="10" stroke-dasharray="1.9642,1.9642" x1="394.357" y1="222.847" x2="487.845" y2="196.148"/>
				
					<line fill="none" stroke="#585A5E" stroke-width="1.1" stroke-miterlimit="10" x1="488.789" y1="195.878" x2="489.751" y2="195.604"/>
				<g>
					<polygon fill="#585A5E" points="489.732,198.519 493.622,194.499 488.195,193.139 					"/>
				</g>
			</g>
		</g>
	</g>
</g>
</svg>
